<?xml version="1.0" encoding="iso-8859-1"?>
<!-- Uploaded to: SVG Repo, www.svgrepo.com, Generator: SVG Repo Mixer Tools -->
<svg version="1.1" id="Layer_1" xmlns="http://www.w3.org/2000/svg" xmlns:xlink="http://www.w3.org/1999/xlink" 
	 viewBox="0 0 511.993 511.993" xml:space="preserve">
<path style="fill:#AAB2BC;" d="M256.004,341.779c-0.055-1.344-1.125-33.625,24.023-60.779
	c20.686-22.289,52.342-34.289,94.137-35.664l0.703,21.328c-23.422,0.766-43.107,5.25-58.514,13.305
	c-11.875,6.188-21.266,14.561-27.938,24.873c-11.529,17.875-11.107,35.906-11.092,36.094L256.004,341.779z"/>
<polygon style="fill:#434A54;" points="234.661,298.654 106.665,298.654 127.938,224.072 213.357,224.04 "/>
<path style="fill:#5D9CEC;" d="M21.34,234.664c-5.883,0-10.672-4.781-10.672-10.687V21.328c0-5.875,4.789-10.656,10.672-10.656
	h298.654c5.875,0,10.656,4.781,10.656,10.656v202.65c0,5.906-4.781,10.687-10.656,10.687L21.34,234.664L21.34,234.664z"/>
<g>
	<path style="fill:#656D78;" d="M319.994,0H21.34C9.559,0,0.005,9.547,0.005,21.328v202.65c0,11.78,9.554,21.343,21.335,21.343
		h298.654c11.781,0,21.342-9.562,21.342-21.343V21.328C341.336,9.547,331.775,0,319.994,0z M319.994,223.978H21.34V21.328h298.654
		V223.978z"/>
	<rect x="15.949" y="181.326" style="fill:#656D78;" width="309.44" height="53.34"/>
</g>
<path style="fill:#AAB2BC;" d="M181.334,213.322c0,5.906-4.781,10.656-10.671,10.656c-5.891,0-10.664-4.75-10.664-10.656
	c0-5.875,4.773-10.656,10.664-10.656C176.553,202.666,181.334,207.447,181.334,213.322z"/>
<path style="fill:#656D78;" d="M234.661,277.312H106.665c-5.891,0-10.664,4.781-10.664,10.654c0,5.906,4.773,10.688,10.664,10.688
	h127.996c5.89,0,10.671-4.781,10.671-10.688C245.332,282.094,240.551,277.312,234.661,277.312z"/>
<path style="fill:#CCD1D9;" d="M511.988,287.967c0,5.906-4.781,10.688-10.656,10.688H373.336c-5.906,0-10.688-4.781-10.688-10.688
	V10.672C362.648,4.766,367.429,0,373.336,0h127.996c5.875,0,10.656,4.766,10.656,10.672V287.967z"/>
<g>
	<path style="fill:#AAB2BC;" d="M405.334,63.998h63.998c5.875,0,10.656-4.766,10.656-10.672c0-5.875-4.781-10.655-10.656-10.655
		h-63.998c-5.904,0-10.686,4.781-10.686,10.655C394.648,59.233,399.43,63.998,405.334,63.998z"/>
	<path style="fill:#AAB2BC;" d="M469.332,85.326h-63.998c-5.904,0-10.686,4.781-10.686,10.672s4.781,10.671,10.686,10.671h63.998
		c5.875,0,10.656-4.781,10.656-10.671S475.207,85.326,469.332,85.326z"/>
	<path style="fill:#AAB2BC;" d="M469.332,127.981h-63.998c-5.904,0-10.686,4.781-10.686,10.687c0,5.875,4.781,10.656,10.686,10.656
		h63.998c5.875,0,10.656-4.781,10.656-10.656C479.988,132.762,475.207,127.981,469.332,127.981z"/>
</g>
<path style="fill:#ED5564;" d="M447.99,213.322c0,5.906-4.781,10.656-10.656,10.656c-5.906,0-10.688-4.75-10.688-10.656
	c0-5.875,4.781-10.656,10.688-10.656C443.209,202.666,447.99,207.447,447.99,213.322z"/>
<polygon style="opacity:0.1;fill:#FFFFFF;enable-background:new    ;" points="189.334,181.323 128,181.323 191.998,21.328 
	253.332,21.328 "/>
<path style="fill:#ED5564;" d="M394.555,351.621c-0.469-1.438-1.234-2.719-2.25-3.842l-21.031-22.969
	c-2.016-2.219-4.875-3.469-7.875-3.469h-24.186c-2.344,0-4.641,0.781-6.5,2.219l-9.219,7.094H209.81l-9.21-7.094
	c-1.867-1.438-4.156-2.219-6.516-2.219H169.89c-2.992,0-5.844,1.25-7.867,3.469l-21.03,22.969c-1.008,1.123-1.781,2.404-2.25,3.842
	c-24.648,74.061-28.405,121.465-11.492,144.934c7.289,10.094,18.132,15.438,31.351,15.438c11.484,0,27.733-5.719,39.944-32.969
	c3.344-7.469,5.625-14.873,7.07-20.373h122.067c1.438,5.5,3.734,12.904,7.062,20.373c12.217,27.25,28.467,32.969,39.967,32.969
	c13.219,0,24.062-5.344,31.342-15.438C422.959,473.086,419.209,425.682,394.555,351.621z"/>
<path style="fill:#656D78;" d="M244.887,437.338c0,11.781-9.547,21.312-21.328,21.312s-21.335-9.531-21.335-21.312
	s9.554-21.344,21.335-21.344S244.887,425.557,244.887,437.338z"/>
<path style="fill:#434A54;" d="M223.559,469.336c-17.648,0-31.999-14.373-31.999-31.998c0-17.656,14.351-32,31.999-32
	c17.64,0,31.999,14.344,31.999,32C255.558,454.963,241.2,469.336,223.559,469.336z M223.559,426.65
	c-5.882,0-10.671,4.781-10.671,10.688c0,5.875,4.789,10.656,10.671,10.656c5.883,0,10.664-4.781,10.664-10.656
	C234.224,431.432,229.442,426.65,223.559,426.65z"/>
<path style="fill:#656D78;" d="M330.213,437.338c0,11.781-9.547,21.312-21.328,21.312s-21.328-9.531-21.328-21.312
	s9.547-21.344,21.328-21.344S330.213,425.557,330.213,437.338z"/>
<path style="fill:#434A54;" d="M308.885,469.336c-17.641,0-31.998-14.373-31.998-31.998c0-17.656,14.357-32,31.998-32
	s32,14.344,32,32C340.885,454.963,326.525,469.336,308.885,469.336z M308.885,426.65c-5.891,0-10.672,4.781-10.672,10.688
	c0,5.875,4.781,10.656,10.672,10.656s10.672-4.781,10.672-10.656C319.557,431.432,314.775,426.65,308.885,426.65z"/>
<polygon style="fill:#FFCE54;" points="323.494,330.654 209.81,330.654 209.81,361.777 323.525,361.777 "/>
</svg>