<?xml version="1.0" ?><svg viewBox="0 0 512 512" xmlns="http://www.w3.org/2000/svg"><g id="Flat"><path d="M316.5,112.333S326,184.936,272,248H224c20.952-22.208,29.829-52.347,29.835-82.41,0-15.076-2.25-30.092-5.683-44.759C243.667,101.667,233,79.667,233,79.667l75.333-11.334S315.667,89.667,316.5,112.333Z" style="fill:#96b268"/><path d="M288.883,176.231,273.117,173.5c5.112-29.557,1.121-48.092,1.08-48.276l15.6-3.554C290,122.538,294.592,143.228,288.883,176.231Z" style="fill:#88a35a"/><path d="M211.618,250.748l-15.027-5.5c25.207-68.914,12.089-112.528-3.355-136.98l13.528-8.544C224.124,127.215,239.058,175.727,211.618,250.748Z" style="fill:#ffb431"/><path d="M171.772,59.517a230.038,230.038,0,0,0-13.293-23.644l13.427-8.7a246.176,246.176,0,0,1,14.238,25.309Z" style="fill:#ffb431"/><path d="M112,248v80H88a24,24,0,0,0-24,24h0a24,24,0,0,0,24,24h24v32a48,48,0,0,0,48,48h40v32H376V452.721A189.435,189.435,0,0,1,396,368h0a189.435,189.435,0,0,0,20-84.721V248Z" style="fill:#fdc8a2"/><path d="M360.223,350.112a228.631,228.631,0,0,0-10.844,25.462l15.072,5.366a212.915,212.915,0,0,1,10.082-23.673,165.605,165.605,0,0,0,15.2-46.807l-15.781-2.638A149.7,149.7,0,0,1,360.223,350.112Z" style="fill:#fdb683"/><path d="M376,280v3.279c0,4-.167,8.063-.5,12.066l15.946,1.31c.365-4.437.55-8.937.55-13.376V280Z" style="fill:#fdb683"/><path d="M147.313,377.373A49.613,49.613,0,0,1,112,392v16a65.511,65.511,0,0,0,46.628-19.314l7.029-7.029-11.314-11.314Z" style="fill:#fdb683"/><rect height="16" style="fill:#fdb683" width="64" x="200" y="456"/><polygon points="64 56 80 24 96 56 136 64 112 88 120 120 80 104 40 120 48 88 24 64 64 56" style="fill:#ffb431"/><path d="M200,248c-24-80-80-128-80-128L80,104,40,120s104,48,128,128Z" style="fill:#de5540"/><path d="M232,248C216,144,136,64,136,64L112,88l8,32s56,48,80,128Z" style="fill:#d64a34"/><path d="M438.18,141.2l-52.335-36.838,39.269-55.789a57.888,57.888,0,0,1,55.97-23.92h0a57.888,57.888,0,0,1-3.635,60.759Z" style="fill:#de5540"/><path d="M462.665,50.816a16.019,16.019,0,0,0-22.293,3.874h0a16,16,0,1,0,22.294-3.875Z" style="fill:#ffb431"/><polygon points="408.869 71.648 373.492 66.313 345.863 105.564 372.761 95.148 385.845 104.358 408.869 71.648" style="fill:#348ed8"/><polygon points="461.204 108.487 478.162 139.989 450.533 179.241 451.263 150.405 438.18 141.196 461.204 108.487" style="fill:#348ed8"/><polygon points="413.219 162.759 373.968 135.13 398.929 113.567 425.096 131.986 413.219 162.759" style="fill:#348ed8"/><path d="M360,152s-40,40-40,96h40c32-24,40-72,40-72Z" style="fill:#ffb431"/><rect height="16.001" style="fill:#f9a614" transform="translate(8.655 407.286) rotate(-59.036)" width="46.648" x="340.676" y="188"/><circle cx="272" cy="63.995" r="40" style="fill:#348ed8"/><path d="M215.955,98.24a24.017,24.017,0,0,1-23.282-18.381A24.348,24.348,0,0,1,192,74.225,23.937,23.937,0,0,1,210.382,50.9L319.267,24.668a24.024,24.024,0,0,1,28.951,17.713,24.362,24.362,0,0,1,.672,5.634,23.928,23.928,0,0,1-18.372,23.317L221.624,97.562A24.15,24.15,0,0,1,215.955,98.24Zm19.288-36.878-21.108,5.09A7.982,7.982,0,0,0,208,74.225a8.252,8.252,0,0,0,.233,1.909,7.993,7.993,0,0,0,9.643,5.874l108.89-26.23a7.972,7.972,0,0,0,6.124-7.763,8.263,8.263,0,0,0-.232-1.908,8,8,0,0,0-9.644-5.884l-87.771,21.14Z" style="fill:#4db6e4"/><path d="M232.813,72.057a40.009,40.009,0,0,1,77.471-19.688" style="fill:#348ed8"/><rect height="16" style="fill:#2b83cc" width="16" x="272" y="39.995"/><polygon points="48 240 48 208 72 224 96 208 96 248 120 272 80 272 64 304 51 271.667 24 264 48 240" style="fill:#ffb431"/><path d="M129.216,252.24A158.257,158.257,0,0,0,111.833,229.4l11.807-10.8a174.211,174.211,0,0,1,19.144,25.159Z" style="fill:#96b268"/><path d="M68.032,194.77c-24.75-14.137-45.569-18.916-45.777-18.963l3.48-15.617c.937.208,23.251,5.276,50.233,20.686Z" style="fill:#96b268"/><path d="M379.889,42.772l-15.008-5.544C366.3,33.375,368,26.566,368,16h16C384,26.381,382.617,35.389,379.889,42.772Z" style="fill:#de5540"/><path d="M407.405,252.574l-11.48-11.144c.212-.219,21.273-22.14,26.66-43.089l15.5,3.985C431.626,227.428,408.392,251.559,407.405,252.574Z" style="fill:#96b268"/><path d="M462.53,224.114l-11.06-11.562c.739-.706,18.381-17.274,42.553-14.153l-2.046,15.869C475.569,212.148,462.656,223.994,462.53,224.114Z" style="fill:#de5540"/><polygon points="496 280 480 280 480 264 464 264 464 280 448 280 448 296 464 296 464 312 480 312 480 296 496 296 496 280" style="fill:#ffb431"/><polygon points="80 408 64 408 64 392 48 392 48 408 32 408 32 424 48 424 48 440 64 440 64 424 80 424 80 408" style="fill:#ffb431"/><rect height="16" style="fill:#de5540" width="16" x="432" y="344"/><rect height="16" style="fill:#96b268" width="16" x="456" y="376"/><rect height="16" style="fill:#de5540" width="16" x="16" y="352"/><rect height="16" style="fill:#de5540" width="16" x="296" y="272"/><rect height="16" style="fill:#96b268" width="16" x="264" y="320"/><rect height="16" style="fill:#de5540" width="16" x="112" y="16"/><rect height="16" style="fill:#96b268" width="16" x="336" y="128"/></g></svg>