<?xml version="1.0" ?><svg height="60px" version="1.1" viewBox="0 0 49 60" width="49px" xmlns="http://www.w3.org/2000/svg" xmlns:xlink="http://www.w3.org/1999/xlink"><title/><desc/><defs/><g fill="none" fill-rule="evenodd" id="Page-1" stroke="none" stroke-width="1"><g fill-rule="nonzero" id="001---World-Education"><path d="M31.8,37.4 C28.6,43 33.4,42.2 34.2,46.2 C34.87,49.58 30.27,52.96 31.06,57.3 C28.5231479,58.4283106 25.7764447,59.0076401 23,59 C24.09,47.85 17,51 17,45 C17,38.05 11.46,39.28 7.65,37.87 C5.72,37.15 4.51,35.14 3.82,33.35 L3.81,33.35 C4.90014605,29.6349952 7.05155512,26.3192533 10,23.81 L10,23.92 C11.7083567,22.9982813 13.5307039,22.3056548 15.42,21.86 C15.970539,24.1680194 15.9671123,26.5735585 15.41,28.88 C14.18,35.11 21.44,38.01 26.09,30.61 C27.99,27.59 31.85,26.89 35.75,27.13 C36.9787441,27.1973809 38.20153,27.3477234 39.41,27.58 C40.7821466,29.5385829 41.7852534,31.7311846 42.37,34.05 C40.41,33.62 34.46,32.75 31.8,37.4 Z" fill="#0068EA" id="Shape"/><path d="M43,39 C43.0074838,46.9299137 38.3211105,54.1125462 31.06,57.3 C30.27,52.96 34.87,49.58 34.2,46.2 C33.4,42.2 28.6,43 31.8,37.4 C34.46,32.75 40.41,33.62 42.37,34.05 L42.38,34.05 C42.7957096,35.667038 43.0040482,37.3303863 43,39 Z" fill="#00CE9B" id="Shape"/><path d="M39.41,27.58 C38.20153,27.3477234 36.9787441,27.1973809 35.75,27.13 C31.85,26.89 27.99,27.59 26.09,30.61 C21.44,38.01 14.18,35.11 15.41,28.88 C15.9671123,26.5735585 15.970539,24.1680194 15.42,21.86 C17.8976445,21.2321335 20.4440412,20.9163535 23,20.92 C27.5154299,20.822937 31.9837198,21.8540808 36,23.92 L36,23.81 C37.2945324,24.9143099 38.4407168,26.1814992 39.41,27.58 Z" fill="#00CE9B" id="Shape"/><path d="M23,59 C16.6970393,58.9955744 10.7644125,56.0222557 6.98861925,50.9754034 C3.212826,45.928551 2.03506613,39.3978875 3.81,33.35 L3.82,33.35 C4.30170979,34.7093527 5.09247406,35.9382894 6.13,36.94 C6.57350539,37.3430538 7.08923385,37.6585982 7.65,37.87 C7.78,37.92 7.91,37.96 8.04,38 C11.82,39.21 17,38.28 17,45 C17,51 24.09,47.85 23,59 Z" fill="#00CE9B" id="Shape"/><path d="M45,8 L43,9.33 L36,14 C31.9837198,11.9340808 27.5154299,10.902937 23,11 C18.4845701,10.902937 14.0162802,11.9340808 10,14 L1,8 L23,1 L43.18,7.42 L45,8 Z" fill="#1274AA" id="Shape"/><path d="M36,14 L36,23.92 C31.9837198,21.8540808 27.5154299,20.822937 23,20.92 C20.4440412,20.9163535 17.8976445,21.2321335 15.42,21.86 C13.5307039,22.3056548 11.7083567,22.9982813 10,23.92 L10,14 C14.0162802,11.9340808 18.4845701,10.902937 23,11 C27.5154299,10.902937 31.9837198,11.9340808 36,14 Z" fill="#005793" id="Shape"/><path d="M45.92,24 L42.08,24 C41.769477,24.0133636 41.469524,23.8857923 41.2637567,23.6528482 C41.0579895,23.4199042 40.9684138,23.1064995 41.02,22.8 L41.67,19.8 C41.7927986,19.3182775 42.2330694,18.9859977 42.73,19 L45.27,19 C45.7669306,18.9859977 46.2072014,19.3182775 46.33,19.8 L46.98,22.8 C47.0315862,23.1064995 46.9420105,23.4199042 46.7362433,23.6528482 C46.530476,23.8857923 46.230523,24.0133636 45.92,24 Z" fill="#FF8600" id="Shape"/><path d="M16.625,54.76 C16.974,54.901 17.325,55.032 17.688,55.15 C17.7885464,55.1836961 17.8939592,55.2005892 18,55.2 C18.4912014,55.1998773 18.9095857,54.8430228 18.9871908,54.3579905 C19.064796,53.8729583 18.7786414,53.4033776 18.312,53.25 C17.995,53.15 17.683,53.03 17.375,52.906 C17.0432297,52.769163 16.6635734,52.8206031 16.3801766,53.0407898 C16.0967799,53.2609765 15.9531046,53.6161418 16.0037005,53.9714388 C16.0542964,54.3267358 16.2914041,54.6276759 16.625,54.76 Z" fill="#FFFFFF" id="Shape"/><path d="M13.1,52.813 C13.3902783,53.0214645 13.769721,53.059232 14.0953957,52.9120759 C14.4210704,52.7649197 14.6434993,52.4551965 14.6788957,52.0995758 C14.7142921,51.7439552 14.5572783,51.3964645 14.267,51.188 C8.63770749,47.1562151 6.4996018,39.7951643 9.093,33.375 C9.22983698,33.0432297 9.1783969,32.6635734 8.95821018,32.3801766 C8.73802347,32.0967799 8.38285822,31.9531046 8.0275612,32.0037005 C7.67226417,32.0542964 7.37132414,32.2914041 7.239,32.625 C4.29925771,39.9005186 6.72121059,48.2428467 13.1,52.813 Z" fill="#FFFFFF" id="Shape"/><path d="M10.511,30 C10.8140914,30.0002971 11.1009618,29.8631143 11.291,29.627 C11.5503333,29.3036667 11.8233333,28.991 12.11,28.689 C12.3644565,28.4316534 12.4600115,28.0569056 12.3598504,27.7091368 C12.2596892,27.361368 11.9794441,27.0948547 11.6270858,27.0122772 C11.2747276,26.9296997 10.9052489,27.043946 10.661,27.311 C10.3356667,27.653 10.026,28.007 9.732,28.373 C9.49064562,28.6728719 9.44283933,29.0846568 9.60907275,29.4318478 C9.77530617,29.7790388 10.1260648,29.9999926 10.511,30 Z" fill="#FFFFFF" id="Shape"/><path d="M0.445,8.832 L9,14.535 L9,23.371 C6.08053829,25.9632977 3.94933654,29.3247054 2.85,33.071 C0.987315518,39.4209216 2.22453628,46.2773038 6.18913748,51.5757031 C10.1537387,56.8741024 16.3825173,59.9954818 23,60 C25.913662,60.010122 28.7963678,59.4024294 31.458,58.217 C39.0809802,54.8669 44.0021384,47.3266435 44,39 C44.0033522,37.2460745 43.7842713,35.4988035 43.348,33.8 C43.34,33.77 43.323,33.745 43.313,33.717 C42.6987427,31.3163915 41.6556425,29.0465729 40.234,27.017 C39.3038011,25.6775882 38.2182403,24.4530594 37,23.369 L37,14.535 L44,9.868 L44,18 L43.726,18 C42.7588476,17.9871795 41.9125108,18.6477046 41.69,19.589 L41.042,22.6 C40.9209472,23.1780788 41.0679988,23.7798874 41.442,24.237 C41.8446229,24.7247023 42.4455968,25.0049853 43.078,25 L46.922,25 C47.5548845,25.0034559 48.1555739,24.7212972 48.557,24.232 C48.9310012,23.7748874 49.0780528,23.1730788 48.957,22.595 L48.957,22.589 L48.311,19.589 C48.088073,18.6475499 47.2413975,17.9870848 46.274,18 L46,18 L46,8 C46,7.983 45.991,7.968 45.99,7.951 C45.9919995,7.92069962 45.9919995,7.89030038 45.99,7.86 C45.9777833,7.78789325 45.9573155,7.71743045 45.929,7.65 C45.923,7.634 45.922,7.617 45.915,7.602 C45.8691865,7.4978531 45.8051868,7.40270008 45.726,7.321 C45.705,7.298 45.681,7.28 45.658,7.259 C45.5923983,7.20175716 45.5198229,7.15303756 45.442,7.114 C45.412,7.099 45.385,7.083 45.354,7.071 C45.323,7.059 45.321,7.053 45.303,7.047 L23.303,0.047 C23.1058622,-0.0156792585 22.8941378,-0.0156792585 22.697,0.047 L0.697,7.047 C0.330608442,7.16342453 0.06339891,7.4795821 0.00965732999,7.86025162 C-0.0440842501,8.24092115 0.125158424,8.6186955 0.445,8.832 Z M46.354,20.011 L47,22.986 L43,23.011 L43.726,20 L46.354,20.011 Z M11.016,14.592 L11.101,14.551 L11.358,14.427 L11.512,14.357 C11.6,14.3163333 11.694,14.2743333 11.794,14.231 L11.984,14.148 C12.096,14.1 12.217,14.048 12.341,14 L12.531,13.923 C12.731,13.845 12.931,13.766 13.156,13.685 L13.182,13.676 C13.394,13.599 13.621,13.521 13.856,13.443 C13.936,13.416 14.021,13.39 14.104,13.363 C14.2773333,13.3083333 14.4556667,13.2533333 14.639,13.198 C14.739,13.168 14.839,13.138 14.946,13.109 C15.13,13.056 15.32,13.009 15.513,12.954 C15.621,12.926 15.728,12.897 15.839,12.87 C16.068,12.813 16.306,12.758 16.549,12.704 L16.789,12.649 C17.1156667,12.5823333 17.4536667,12.5156667 17.803,12.449 C17.887,12.434 17.975,12.422 18.06,12.408 C18.329,12.362 18.603,12.32 18.885,12.281 C19.014,12.263 19.147,12.247 19.278,12.231 C19.53,12.199 19.786,12.171 20.047,12.145 C20.189,12.131 20.333,12.118 20.478,12.106 C20.752,12.083 21.033,12.064 21.316,12.049 C21.449,12.041 21.58,12.032 21.716,12.026 C22.134,12.012 22.561,12 23,12 C23.439,12 23.866,12.012 24.285,12.029 C24.42,12.035 24.55,12.044 24.685,12.052 C24.969,12.067 25.25,12.086 25.525,12.109 C25.67,12.121 25.812,12.134 25.954,12.148 C26.216,12.174 26.473,12.202 26.725,12.234 C26.856,12.25 26.988,12.266 27.117,12.284 C27.399,12.323 27.674,12.366 27.944,12.411 C28.028,12.425 28.116,12.437 28.199,12.452 C28.548,12.513 28.887,12.58 29.214,12.652 L29.451,12.706 C29.694,12.76 29.933,12.815 30.163,12.873 C30.274,12.9 30.381,12.929 30.489,12.957 C30.682,13.008 30.872,13.057 31.055,13.111 L31.364,13.201 C31.547,13.255 31.723,13.31 31.895,13.365 L32.148,13.446 C32.376,13.522 32.596,13.598 32.802,13.672 L32.859,13.693 C33.075,13.771 33.276,13.849 33.467,13.924 L33.674,14.008 C33.791,14.056 33.906,14.103 34.012,14.148 L34.218,14.238 C34.309,14.278 34.395,14.316 34.476,14.354 L34.654,14.435 C34.731,14.471 34.8,14.505 34.867,14.535 L34.995,14.597 L35.002,14.597 L35.002,22.303 L34.975,22.292 C34.743,22.192 34.482,22.081 34.201,21.969 L34.024,21.9 C33.724,21.785 33.411,21.667 33.065,21.548 C33.032,21.536 32.996,21.525 32.965,21.514 C32.636,21.402 32.284,21.291 31.913,21.181 L31.713,21.121 C31.32,21.008 30.904,20.899 30.468,20.793 L30.197,20.73 C29.739,20.624 29.266,20.522 28.764,20.43 L28.675,20.415 C28.194,20.329 27.691,20.254 27.175,20.187 L26.875,20.147 C26.3416667,20.0836667 25.7883333,20.0326667 25.215,19.994 C25.102,19.986 24.987,19.981 24.872,19.974 C24.272,19.94 23.652,19.916 23.01,19.916 C22.3433333,19.916 21.6793333,19.9363333 21.018,19.977 C19.0487655,20.0966698 17.0951572,20.4013456 15.183,20.887 C14.778,20.987 14.4,21.098 14.036,21.207 C13.927,21.239 13.825,21.271 13.72,21.307 C13.455,21.389 13.202,21.472 12.959,21.555 C12.872,21.585 12.784,21.614 12.7,21.644 C12.4,21.751 12.112,21.857 11.85,21.96 L11.696,22.023 C11.486,22.107 11.2903333,22.1886667 11.109,22.268 C11.079,22.281 11.041,22.295 11.009,22.308 L11.009,14.6 L11.016,14.592 Z M4,39 C4.00005589,38.076382 4.06689684,37.1539769 4.2,36.24 C4.239,36.296 4.286,36.346 4.325,36.401 C4.439,36.5576667 4.55866667,36.7116667 4.684,36.863 C4.765,36.963 4.846,37.054 4.932,37.147 C5.064,37.292 5.205,37.429 5.35,37.563 C5.441,37.648 5.53,37.733 5.626,37.813 C5.79222041,37.9483649 5.96546077,38.0748738 6.145,38.192 C6.236,38.253 6.321,38.32 6.415,38.376 C6.69821281,38.5462112 6.9960629,38.6907856 7.305,38.808 C8.33187023,39.1531056 9.38686087,39.40807 10.458,39.57 C13.674,40.154 16,40.576 16,45 C16,47.987 17.576,49.17 18.967,50.215 C19.075,50.296 19.184,50.378 19.292,50.461 L19.361,50.514 C19.446,50.58 19.53,50.645 19.614,50.714 L19.72,50.802 C19.791,50.861 19.862,50.92 19.932,50.981 C19.971,51.015 20.009,51.051 20.048,51.086 C20.113,51.146 20.178,51.205 20.242,51.267 C20.282,51.307 20.321,51.349 20.361,51.39 C20.421,51.452 20.48,51.514 20.538,51.579 C20.579,51.625 20.618,51.673 20.658,51.721 C20.712,51.786 20.767,51.853 20.819,51.921 C20.859,51.973 20.897,52.028 20.935,52.083 C20.985,52.154 21.035,52.226 21.082,52.302 C21.119,52.362 21.155,52.424 21.191,52.486 C21.236,52.564 21.28,52.645 21.322,52.728 C21.356,52.795 21.389,52.865 21.422,52.936 C21.462,53.023 21.501,53.113 21.538,53.206 C21.568,53.281 21.597,53.358 21.625,53.438 C21.66,53.538 21.692,53.638 21.725,53.738 C21.75,53.823 21.775,53.909 21.799,53.999 C21.827,54.107 21.853,54.219 21.878,54.334 C21.898,54.429 21.919,54.525 21.937,54.625 C21.959,54.746 21.977,54.873 21.995,55.001 C22.01,55.107 22.026,55.212 22.038,55.323 C22.053,55.458 22.063,55.6 22.074,55.742 C22.083,55.86 22.092,55.976 22.098,56.1 C22.105,56.249 22.107,56.408 22.109,56.565 C22.109,56.696 22.115,56.823 22.109,56.965 C22.109,57.13 22.1,57.307 22.094,57.482 C22.089,57.626 22.086,57.765 22.078,57.915 C22.078,57.936 22.078,57.959 22.078,57.98 C11.9590336,57.4772139 4.00988654,49.131445 4,39 Z M32.005,55.729 L32.005,55.714 C32.0460163,55.3891881 32.1128953,55.0681685 32.205,54.754 C32.226,54.679 32.249,54.603 32.272,54.529 C32.3649941,54.2264285 32.4731304,53.9287199 32.596,53.637 L32.611,53.599 C32.747,53.281 32.9,52.966 33.059,52.652 C33.097,52.576 33.135,52.5 33.175,52.424 C33.325,52.1333333 33.4776667,51.844 33.633,51.556 C34.585,49.783 35.568,47.956 35.183,46.004 C34.8555999,44.5670259 34.0477764,43.2847384 32.893,42.369 C31.687,41.242 31.081,40.677 32.67,37.896 C32.8325783,37.6151703 33.017156,37.3476663 33.222,37.096 C33.282,37.021 33.345,36.953 33.408,36.883 C33.5510743,36.7198077 33.7033205,36.5648906 33.864,36.419 C33.935,36.355 34.005,36.291 34.079,36.231 C34.2593337,36.0834913 34.4483386,35.9469135 34.645,35.822 C34.692,35.792 34.737,35.756 34.785,35.728 C35.0245228,35.5856736 35.2730471,35.4590731 35.529,35.349 C35.608,35.315 35.688,35.288 35.768,35.257 C35.95,35.186 36.134,35.121 36.319,35.065 C36.419,35.036 36.519,35.008 36.612,34.983 C36.793,34.936 36.975,34.896 37.158,34.861 C37.246,34.845 37.334,34.825 37.422,34.811 C37.676,34.77 37.931,34.739 38.183,34.719 C38.276,34.711 38.366,34.71 38.458,34.704 C38.629,34.695 38.799,34.687 38.966,34.686 C39.095,34.686 39.222,34.686 39.349,34.686 L39.598,34.693 C39.732,34.698 39.862,34.705 39.991,34.714 L40.238,34.733 C40.358,34.744 40.477,34.755 40.593,34.768 C40.677,34.7773333 40.76,34.7873333 40.842,34.798 C40.948,34.811 41.052,34.825 41.152,34.84 L41.394,34.879 L41.561,34.907 C43.3786684,43.2010902 39.4804396,51.6956711 32.007,55.726 L32.005,55.729 Z M40.353,32.749 L40.253,32.743 C40.053,32.729 39.853,32.718 39.643,32.711 L39.517,32.711 C39.303,32.7063333 39.0846667,32.7063333 38.862,32.711 L38.762,32.711 C37.9389526,32.7280686 37.1197593,32.8285832 36.317,33.011 C36.273,33.021 36.229,33.033 36.186,33.044 C35.9586667,33.1 35.7323333,33.1643333 35.507,33.237 L35.333,33.295 C35.1043333,33.3743333 34.8773333,33.463 34.652,33.561 C34.612,33.579 34.571,33.594 34.53,33.613 C34.2580218,33.7361294 33.9929615,33.8740008 33.736,34.026 C33.4896494,34.1741548 33.2516241,34.3357316 33.023,34.51 C32.956,34.561 32.892,34.617 32.823,34.67 C32.657,34.805 32.494,34.948 32.335,35.101 C32.261,35.1723333 32.188,35.2453333 32.116,35.32 C31.964,35.479 31.816,35.649 31.675,35.826 C31.613,35.903 31.55,35.976 31.49,36.056 C31.2878588,36.3248519 31.1021856,36.6056994 30.934,36.897 C28.734,40.745 29.846,42.252 31.527,43.823 C32.3704239,44.458336 32.9704653,45.3636926 33.227,46.388 C33.2572345,46.5435406 33.2729686,46.7015515 33.274,46.86 C33.1051953,48.1993595 32.6257859,49.4807522 31.874,50.602 C31.75,50.834 31.624,51.069 31.499,51.302 C31.46,51.377 31.422,51.453 31.384,51.528 C31.295,51.701 31.207,51.873 31.121,52.049 C31.076,52.142 31.033,52.237 30.989,52.332 C30.913,52.494 30.839,52.657 30.768,52.823 C30.724,52.923 30.683,53.03 30.642,53.134 C30.578,53.296 30.516,53.459 30.459,53.624 C30.421,53.733 30.386,53.843 30.351,53.954 C30.3,54.12 30.251,54.287 30.212,54.454 C30.184,54.566 30.157,54.679 30.134,54.794 C30.098,54.968 30.071,55.145 30.047,55.323 C30.032,55.436 30.015,55.548 30.005,55.663 C29.989,55.853 29.986,56.048 29.985,56.243 C29.985,56.349 29.979,56.453 29.985,56.561 C29.985,56.593 29.985,56.624 29.985,56.661 C28.1026086,57.4139032 26.1095025,57.8530622 24.085,57.961 C24.085,57.937 24.085,57.917 24.085,57.894 C24.094,57.722 24.095,57.563 24.099,57.394 C24.105,57.179 24.113,56.962 24.112,56.758 C24.112,56.595 24.105,56.444 24.1,56.288 C24.094,56.099 24.09,55.909 24.078,55.73 C24.069,55.579 24.054,55.437 24.04,55.293 C24.025,55.125 24.009,54.956 23.988,54.793 C23.97,54.656 23.948,54.527 23.927,54.393 C23.901,54.241 23.876,54.093 23.847,53.946 C23.821,53.822 23.792,53.704 23.764,53.586 C23.73,53.45 23.696,53.315 23.659,53.186 C23.626,53.074 23.592,52.967 23.559,52.861 C23.518,52.738 23.475,52.617 23.431,52.501 C23.393,52.401 23.353,52.301 23.313,52.211 C23.265,52.099 23.213,51.991 23.164,51.886 C23.122,51.798 23.078,51.711 23.033,51.627 C22.979,51.527 22.923,51.427 22.866,51.334 C22.82,51.256 22.773,51.179 22.724,51.104 C22.664,51.013 22.603,50.925 22.541,50.838 C22.491,50.77 22.441,50.701 22.392,50.638 C22.326,50.554 22.26,50.474 22.192,50.395 C22.142,50.335 22.092,50.274 22.04,50.217 C21.969,50.139 21.898,50.065 21.826,49.991 C21.775,49.94 21.726,49.891 21.674,49.837 C21.598,49.763 21.522,49.693 21.444,49.623 C21.396,49.579 21.344,49.534 21.299,49.491 C21.216,49.419 21.133,49.35 21.049,49.281 C21.006,49.245 20.964,49.208 20.921,49.174 C20.821,49.095 20.721,49.02 20.629,48.945 L20.543,48.878 C20.418,48.778 20.294,48.689 20.171,48.597 C18.862,47.635 18,46.987 18,45 C18,38.906 14.015,38.184 10.812,37.6 C9.85753661,37.4578307 8.91683763,37.2350336 8,36.934 C7.79103204,36.853043 7.59014641,36.7526001 7.4,36.634 C7.338,36.596 7.283,36.549 7.223,36.507 C7.09670559,36.4230724 6.97487351,36.3326163 6.858,36.236 C6.792,36.179 6.731,36.115 6.668,36.054 C6.568,35.959 6.468,35.864 6.377,35.762 C6.314,35.692 6.255,35.618 6.196,35.545 C6.112,35.445 6.029,35.345 5.952,35.236 C5.896,35.158 5.843,35.08 5.79,35.001 C5.72,34.895 5.65,34.79 5.585,34.684 C5.536,34.603 5.485,34.521 5.443,34.44 C5.384,34.34 5.327,34.232 5.274,34.13 C5.232,34.05 5.191,33.97 5.153,33.891 C5.104,33.791 5.058,33.691 5.015,33.598 C4.981,33.523 4.947,33.448 4.915,33.376 C4.901,33.344 4.89,33.315 4.877,33.284 C5.89397092,30.0410129 7.77042104,27.1340703 10.307,24.872 C10.3795518,24.8483405 10.4492995,24.8168199 10.515,24.778 L10.595,24.732 L10.672,24.691 C10.716,24.667 10.766,24.64 10.83,24.607 L10.982,24.531 C11.052,24.495 11.128,24.458 11.214,24.416 L11.434,24.316 C11.534,24.271 11.634,24.224 11.745,24.175 L12.024,24.054 C12.149,24.001 12.283,23.946 12.424,23.89 C12.529,23.847 12.637,23.804 12.751,23.76 C12.907,23.7 13.075,23.639 13.245,23.578 C13.364,23.535 13.481,23.492 13.607,23.449 C13.807,23.381 14.017,23.313 14.231,23.249 C14.35,23.211 14.463,23.174 14.587,23.136 L14.675,23.112 C14.675,23.13 14.681,23.145 14.684,23.164 C14.693,23.218 14.7,23.277 14.708,23.334 C14.727,23.473 14.745,23.618 14.76,23.77 C14.767,23.843 14.774,23.916 14.78,23.991 C14.793,24.155 14.802,24.327 14.809,24.505 C14.809,24.57 14.816,24.631 14.818,24.698 C14.824,24.945 14.824,25.204 14.818,25.477 C14.818,25.528 14.812,25.584 14.81,25.636 C14.801,25.863 14.787,26.098 14.767,26.343 C14.76,26.443 14.75,26.543 14.74,26.636 C14.718,26.86 14.691,27.091 14.659,27.329 C14.646,27.429 14.633,27.529 14.618,27.629 C14.567,27.969 14.509,28.319 14.436,28.688 C13.818,31.821 15.117,34.606 17.669,35.62 C18.5635653,35.9623859 19.5299885,36.0738169 20.479,35.944 C20.5356667,35.9366667 20.5926667,35.9286667 20.65,35.92 C21.2111627,35.8320677 21.7590969,35.6741712 22.281,35.45 C22.3476667,35.4226667 22.4116667,35.3946667 22.473,35.366 C23.0671695,35.0903309 23.6269873,34.7459825 24.141,34.34 C24.208,34.288 24.275,34.234 24.341,34.179 C24.6306242,33.9430479 24.9070423,33.6913339 25.169,33.425 C25.439,33.149 25.704,32.837 25.969,32.508 C26.035,32.426 26.1,32.342 26.169,32.256 C26.433,31.911 26.693,31.548 26.947,31.145 C28.374,28.875 31.321,27.858 35.711,28.131 C36.229,28.156 36.765,28.205 37.319,28.271 C37.497,28.292 37.689,28.326 37.872,28.352 C38.187,28.396 38.508,28.445 38.838,28.503 C39.7320659,29.8399932 40.448725,31.2874294 40.97,32.809 C40.767,32.784 40.563,32.765 40.353,32.749 Z M35.812,26.132 C30.646,25.814 27.091,27.142 25.243,30.078 C22.868,33.858 20.072,34.428 18.4,33.759 C16.747,33.104 15.959,31.259 16.391,29.074 C16.473,28.659 16.538,28.264 16.591,27.88 C16.609,27.757 16.623,27.64 16.638,27.52 C16.672,27.2593333 16.7006667,27.0056667 16.724,26.759 C16.736,26.636 16.747,26.515 16.756,26.396 C16.774,26.151 16.787,25.915 16.795,25.685 C16.795,25.592 16.804,25.495 16.806,25.404 C16.813,25.094 16.812,24.796 16.806,24.515 C16.806,24.471 16.806,24.432 16.799,24.389 C16.789,24.151 16.7746667,23.923 16.756,23.705 C16.748,23.619 16.739,23.539 16.73,23.456 C16.712,23.288 16.692,23.126 16.669,22.972 C16.658,22.892 16.646,22.813 16.633,22.737 C16.627,22.699 16.622,22.656 16.615,22.619 C16.777,22.583 16.938,22.544 17.101,22.512 C17.325,22.466 17.5496667,22.423 17.775,22.383 C18.13,22.32 18.487,22.266 18.845,22.216 C19.064,22.186 19.283,22.153 19.503,22.128 C19.893,22.082 20.286,22.049 20.679,22.019 C20.868,22.005 21.056,21.985 21.245,21.974 C21.827,21.94 22.412,21.92 22.999,21.92 C27.3323976,21.8374195 31.6199343,22.8187424 35.486,24.778 C35.5515824,24.8170468 35.6213559,24.8485791 35.694,24.872 C36.1715301,25.2997023 36.6267955,25.75163 37.058,26.226 C36.6326667,26.1833333 36.2173333,26.152 35.812,26.132 Z M23,2.049 L42.714,8.322 L35.946,12.834 L35.923,12.822 L35.794,12.758 L35.538,12.633 L35.369,12.555 C35.269,12.508 35.162,12.46 35.049,12.409 L34.861,12.326 C34.727,12.268 34.583,12.208 34.434,12.147 L34.266,12.078 C34.053,11.992 33.827,11.905 33.585,11.816 L33.494,11.784 C33.282,11.7073333 33.0593333,11.6296667 32.826,11.551 L32.575,11.47 C32.382,11.407 32.184,11.346 31.975,11.284 L31.668,11.194 C31.461,11.135 31.247,11.077 31.028,11.019 C30.921,10.991 30.817,10.963 30.707,10.936 C30.44,10.869 30.164,10.805 29.88,10.742 L29.68,10.697 C29.3273333,10.6223333 28.9626667,10.5516667 28.586,10.485 C28.486,10.468 28.386,10.453 28.294,10.437 C28.009,10.39 27.719,10.345 27.422,10.304 C27.282,10.285 27.14,10.268 26.997,10.25 C26.727,10.216 26.4526667,10.1856667 26.174,10.159 C26.02,10.144 25.867,10.129 25.71,10.116 C25.41,10.091 25.11,10.072 24.805,10.055 C24.662,10.047 24.523,10.037 24.378,10.031 C23.934,10.012 23.473,10 23,10 C22.527,10 22.067,10.012 21.614,10.031 C21.469,10.037 21.329,10.047 21.186,10.055 C20.88,10.072 20.578,10.091 20.286,10.116 C20.128,10.129 19.974,10.144 19.819,10.159 C19.541,10.186 19.269,10.216 19.001,10.25 C18.857,10.267 18.712,10.285 18.571,10.304 C18.277,10.345 17.992,10.389 17.71,10.436 L17.41,10.485 C17.0353333,10.5516667 16.6723333,10.6223333 16.321,10.697 L16.103,10.746 C15.829,10.807 15.56,10.87 15.303,10.935 C15.188,10.963 15.078,10.993 14.966,11.022 C14.753,11.078 14.546,11.134 14.346,11.192 L14.021,11.292 C13.821,11.351 13.633,11.41 13.448,11.47 L13.175,11.558 C12.955,11.632 12.746,11.705 12.544,11.778 L12.418,11.823 C12.18,11.91 11.958,11.996 11.748,12.081 C11.679,12.108 11.618,12.134 11.548,12.161 C11.409,12.218 11.275,12.274 11.148,12.328 L10.948,12.418 C10.84,12.466 10.739,12.512 10.648,12.557 C10.586,12.586 10.526,12.613 10.469,12.641 C10.38,12.683 10.301,12.722 10.224,12.76 L10.087,12.828 L10.065,12.839 L3.286,8.322 L23,2.049 Z" fill="#000000" id="Shape"/></g></g></svg>