<?xml version="1.0" ?><svg height="56px" version="1.1" viewBox="0 0 60 56" width="60px" xmlns="http://www.w3.org/2000/svg" xmlns:xlink="http://www.w3.org/1999/xlink"><title/><desc/><defs/><g fill="none" fill-rule="evenodd" id="Page-1" stroke="none" stroke-width="1"><g fill-rule="nonzero" id="018---Math-Research"><path d="M26.04,26 C26.01,26.33 26,26.66 26,27 C26.007734,32.8012427 29.5846034,37.9996261 35,40.08 L35,52 C35,53.6568542 33.6568542,55 32,55 L4,55 C2.34314575,55 1,53.6568542 1,52 L1,4 C1,2.34314575 2.34314575,1 4,1 L32,1 C33.6568542,1 35,2.34314575 35,4 L35,13.92 C33.5236668,14.4952611 32.1520204,15.309465 30.94,16.33 C30.7,16.54 30.47,16.75 30.25,16.96 L30.01,17.2 C27.6796479,19.5660822 26.271638,22.6871116 26.04,26 Z" fill="#97A5BB" id="Shape"/><path d="M31,6 L31,16 C31.0013171,16.1128273 30.980948,16.2248572 30.94,16.33 C30.7,16.54 30.47,16.75 30.25,16.96 C30.1698471,16.9886387 30.0850872,17.0022003 30,17 L6,17 C5.44771525,17 5,16.5522847 5,16 L5,6 C5,5.44771525 5.44771525,5 6,5 L30,5 C30.5522847,5 31,5.44771525 31,6 Z" fill="#6AD202" id="Shape"/><rect fill="#BDC9D7" height="6" id="Rectangle-path" rx="1" width="6" x="5" y="22"/><rect fill="#BDC9D7" height="6" id="Rectangle-path" rx="1" width="6" x="15" y="22"/><rect fill="#BDC9D7" height="6" id="Rectangle-path" rx="1" width="6" x="25" y="22"/><rect fill="#BDC9D7" height="6" id="Rectangle-path" rx="1" width="6" x="5" y="33"/><rect fill="#BDC9D7" height="6" id="Rectangle-path" rx="1" width="6" x="15" y="33"/><path d="M31,37.72 L31,38 C31,38.5522847 30.5522847,39 30,39 L26,39 C25.4477153,39 25,38.5522847 25,38 L25,34 C25,33.4477153 25.4477153,33 26,33 L27.35,33 C28.2129107,34.8176129 29.4579174,36.4275941 31,37.72 Z" fill="#BDC9D7" id="Shape"/><rect fill="#BDC9D7" height="6" id="Rectangle-path" rx="1" width="6" x="5" y="44"/><rect fill="#BDC9D7" height="6" id="Rectangle-path" rx="1" width="6" x="15" y="44"/><rect fill="#BDC9D7" height="6" id="Rectangle-path" rx="1" width="6" x="25" y="44"/><path d="M54,27 C54.0045951,30.3663325 52.7896541,33.620385 50.58,36.16 C50.1423075,36.6676806 49.6676806,37.1423075 49.16,37.58 C47.0679198,39.3981544 44.4808785,40.5506587 41.73,40.89 C41.1561352,40.962114 40.578377,40.9988501 40,41 C38.9776064,41.0022822 37.9580895,40.8916109 36.96,40.67 C36.2922137,40.5250049 35.636861,40.3277303 35,40.08 C33.5425715,39.5256735 32.1899732,38.7276405 31,37.72 C27.8287882,35.0628709 25.9978127,31.1372593 26,27 C26,26.66 26.01,26.33 26.04,26 C26.271638,22.6871116 27.6796479,19.5660822 30.01,17.2 L30.25,16.96 C30.47,16.75 30.7,16.54 30.94,16.33 C32.1520204,15.309465 33.5236668,14.4952611 35,13.92 C39.3042998,12.2777901 44.1409101,12.8571367 47.9355853,15.469471 C51.7302604,18.0818052 53.9977427,22.3930656 54,27 Z" fill="#00ABE8" id="Shape"/><path d="M22,9 C22,8.44771525 21.5522847,8 21,8 L15,8 C14.4477153,8 14,8.44771525 14,9 C14,9.55228475 14.4477153,10 15,10 L21,10 C21.5522847,10 22,9.55228475 22,9 Z" fill="#FFFFFF" id="Shape"/><path d="M11,8 L10,8 C8.8954305,8 8,8.8954305 8,10 L8,11 C8,11.5522847 8.44771525,12 9,12 C9.55228475,12 10,11.5522847 10,11 L10,10 L11,10 C11.5522847,10 12,9.55228475 12,9 C12,8.44771525 11.5522847,8 11,8 Z" fill="#FFFFFF" id="Shape"/><path d="M26,8 L25,8 C24.4477153,8 24,8.44771525 24,9 C24,9.55228475 24.4477153,10 25,10 L26,10 L26,11 C26,11.5522847 26.4477153,12 27,12 C27.5522847,12 28,11.5522847 28,11 L28,10 C28,8.8954305 27.1045695,8 26,8 Z" fill="#FFFFFF" id="Shape"/><path d="M40,16 C39.628,16 39.262,16.019 38.9,16.055 C38.3477153,16.0826142 37.9223858,16.5527153 37.95,17.105 C37.9776143,17.6572847 38.4477153,18.0826142 39,18.055 C39.033,18.055 39.067,18.055 39.1,18.055 C39.3988759,18.0214479 39.6992626,18.0030909 40,18 C40.5522847,18 41,17.5522847 41,17 C41,16.4477153 40.5522847,16 40,16 Z" fill="#FFFFFF" id="Shape"/><path d="M35.865,17.842 C35.5881648,17.3644573 34.9767568,17.2015346 34.499,17.478 C31.1034555,19.4486023 29.0097289,23.0740732 29,27 C29,27.5522847 29.4477153,28 30,28 C30.5522847,28 31,27.5522847 31,27 C31.0089937,23.7876097 32.7220856,20.8212959 35.5,19.208 C35.9779053,18.9315071 36.1412972,18.3200185 35.865,17.842 Z" fill="#FFFFFF" id="Shape"/><path d="M4,56 L32,56 C34.209139,56 36,54.209139 36,52 L36,41.452 C36.242,41.519 36.479,41.587 36.741,41.646 C41.4022073,42.6759099 46.2753141,41.4257004 49.865,38.279 L58.293,46.707 C58.6853789,47.0859722 59.3090848,47.0805524 59.6948186,46.6948186 C60.0805524,46.3090848 60.0859722,45.6853789 59.707,45.293 L51.286,36.872 C55.6425757,31.8846805 56.2132161,24.6306464 52.6900592,19.0234659 C49.1669023,13.4162854 42.3836976,10.7828889 36,12.544 L36,4 C36,1.790861 34.209139,0 32,0 L4,0 C1.790861,-2.22044605e-16 2.705415e-16,1.790861 0,4 L0,52 C2.705415e-16,54.209139 1.790861,56 4,56 Z M53,27 C52.9999152,33.5578478 48.1154876,39.0888447 41.608,39.9 C40.1314171,40.0948742 38.6320092,40.0271656 37.179,39.7 C36.5578759,39.5655265 35.9483207,39.3822921 35.356,39.152 C34.0021953,38.6372884 32.7461639,37.8953032 31.642,36.958 C30.2115778,35.7568676 29.055844,34.2624959 28.253,32.576 C27.4213816,30.8351913 26.9930888,28.9292372 27,27 C27,26.691 27.009,26.392 27.037,26.07 C27.2552196,22.9982903 28.5597522,20.1045674 30.717,17.907 L30.94,17.683 C31.148,17.483 31.3646667,17.2856667 31.59,17.091 C32.7142208,16.1439346 33.9865287,15.3881851 35.356,14.854 C39.3530246,13.3293598 43.8441734,13.8674489 47.3679027,16.2931582 C50.8916319,18.7188675 52.9974255,22.7220651 53,27 Z M29.806,38 L26,38 L26,34 L26.733,34 C26.833,34.193 26.954,34.377 27.064,34.566 C27.14,34.695 27.211,34.826 27.291,34.953 C27.549,35.365 27.823,35.767 28.12,36.153 C28.156,36.2 28.198,36.243 28.234,36.29 C28.5006667,36.6266667 28.7806667,36.951 29.074,37.263 C29.183,37.38 29.297,37.489 29.41,37.602 C29.542,37.733 29.668,37.873 29.806,38 Z M30.013,15.816 C29.944,15.878 29.878,15.938 29.813,16 L6,16 L6,6 L30,6 L30.013,15.816 Z M2,4 C2,2.8954305 2.8954305,2 4,2 L32,2 C33.1045695,2 34,2.8954305 34,4 L34,13.253 C33.9,13.297 33.8,13.353 33.7,13.396 C33.556,13.4626667 33.413,13.532 33.271,13.604 C33.051,13.715 32.835,13.833 32.62,13.955 C32.488,14.03 32.356,14.103 32.226,14.182 C32.149,14.229 32.071,14.274 31.995,14.322 L31.995,6 C31.995,4.8954305 31.0995695,4 29.995,4 L6,4 C4.8954305,4 4,4.8954305 4,6 L4,16 C4,17.1045695 4.8954305,18 6,18 L28.024,18 C26.288791,20.2934381 25.2538819,23.0397674 25.044,25.908 L25.044,25.919 C25.011,26.276 25,26.633 25,27 C24.9979487,28.7086321 25.29057,30.4048207 25.865,32.014 C24.8188468,32.084765 24.0049492,32.9514678 24,34 L24,38 C24,39.1045695 24.8954305,40 26,40 L30,40 C30.5635683,39.9984061 31.1000052,39.7578091 31.476,39.338 C31.514,39.364 31.554,39.387 31.592,39.413 C31.809,39.561 32.028,39.706 32.253,39.842 C32.386,39.923 32.521,39.997 32.653,40.073 C32.853,40.188 33.064,40.3 33.274,40.405 C33.42,40.478 33.567,40.548 33.715,40.617 C33.81,40.66 33.901,40.71 33.997,40.752 L33.997,52 C33.997,53.1045695 33.1015695,54 31.997,54 L4,54 C2.8954305,54 2,53.1045695 2,52 L2,4 Z" fill="#000000" id="Shape"/><path d="M6,29 L10,29 C11.1045695,29 12,28.1045695 12,27 L12,23 C12,21.8954305 11.1045695,21 10,21 L6,21 C4.8954305,21 4,21.8954305 4,23 L4,27 C4,28.1045695 4.8954305,29 6,29 Z M6,23 L10,23 L10,27 L6,27 L6,23 Z" fill="#000000" id="Shape"/><path d="M16,29 L20,29 C21.1045695,29 22,28.1045695 22,27 L22,23 C22,21.8954305 21.1045695,21 20,21 L16,21 C14.8954305,21 14,21.8954305 14,23 L14,27 C14,28.1045695 14.8954305,29 16,29 Z M16,23 L20,23 L20,27 L16,27 L16,23 Z" fill="#000000" id="Shape"/><path d="M6,40 L10,40 C11.1045695,40 12,39.1045695 12,38 L12,34 C12,32.8954305 11.1045695,32 10,32 L6,32 C4.8954305,32 4,32.8954305 4,34 L4,38 C4,39.1045695 4.8954305,40 6,40 Z M6,34 L10,34 L10,38 L6,38 L6,34 Z" fill="#000000" id="Shape"/><path d="M16,40 L20,40 C21.1045695,40 22,39.1045695 22,38 L22,34 C22,32.8954305 21.1045695,32 20,32 L16,32 C14.8954305,32 14,32.8954305 14,34 L14,38 C14,39.1045695 14.8954305,40 16,40 Z M16,34 L20,34 L20,38 L16,38 L16,34 Z" fill="#000000" id="Shape"/><path d="M6,51 L10,51 C11.1045695,51 12,50.1045695 12,49 L12,45 C12,43.8954305 11.1045695,43 10,43 L6,43 C4.8954305,43 4,43.8954305 4,45 L4,49 C4,50.1045695 4.8954305,51 6,51 Z M6,45 L10,45 L10,49 L6,49 L6,45 Z" fill="#000000" id="Shape"/><path d="M16,51 L20,51 C21.1045695,51 22,50.1045695 22,49 L22,45 C22,43.8954305 21.1045695,43 20,43 L16,43 C14.8954305,43 14,43.8954305 14,45 L14,49 C14,50.1045695 14.8954305,51 16,51 Z M16,45 L20,45 L20,49 L16,49 L16,45 Z" fill="#000000" id="Shape"/><path d="M26,51 L30,51 C31.1045695,51 32,50.1045695 32,49 L32,45 C32,43.8954305 31.1045695,43 30,43 L26,43 C24.8954305,43 24,43.8954305 24,45 L24,49 C24,50.1045695 24.8954305,51 26,51 Z M26,45 L30,45 L30,49 L26,49 L26,45 Z" fill="#000000" id="Shape"/></g></g></svg>