<?xml version="1.0" ?><svg height="60px" version="1.1" viewBox="0 0 60 60" width="60px" xmlns="http://www.w3.org/2000/svg" xmlns:xlink="http://www.w3.org/1999/xlink"><title/><desc/><defs/><g fill="none" fill-rule="evenodd" id="Page-1" stroke="none" stroke-width="1"><g fill-rule="nonzero" id="036---Video-Degree-Course"><path d="M24.71,1 L24.24,3.37 L23.1,9.08 C19.8209036,10.1332847 16.8552336,11.9855397 14.47,14.47 C11.9855397,16.8552336 10.1332847,19.8209036 9.08,23.1 L1,24.71 L8.23,8.74 L22.78,1.91 L24.71,1 Z" fill="#1274AA" id="Shape"/><path d="M28.01,14 C24.8210992,15.2111606 21.9439968,17.1212559 19.59,19.59 C17.1212559,21.9439968 15.2111606,24.8210992 14,28.01 L13.99,28.01 L9.08,23.1 C10.1332847,19.8209036 11.9855397,16.8552336 14.47,14.47 C16.8552336,11.9855397 19.8209036,10.1332847 23.1,9.08 L28,14 L28.01,14 Z" fill="#005793" id="Shape"/><path d="M32.871,7.371 C33.0640374,7.50808207 33.1847883,7.72505693 33.1995448,7.96135587 C33.2143014,8.19765481 33.121483,8.42796678 32.947,8.588 L30.876,10.659 C30.7159668,10.833483 30.4856548,10.9263014 30.2493559,10.9115448 C30.0130569,10.8967883 29.7960821,10.7760374 29.659,10.583 L28.391,8.617 C28.1981329,8.29210518 28.2558356,7.87697744 28.53,7.617 L29.9,6.242 C30.1599774,5.96783562 30.5751052,5.91013286 30.9,6.103 L32.871,7.371 Z" fill="#FF8600" id="Shape"/><path d="M59,18 L59,45 C59,47.209139 57.209139,49 55,49 L18,49 C15.790861,49 14,47.209139 14,45 L14,28.01 C15.2111606,24.8210992 17.1212559,21.9439968 19.59,19.59 C21.9439968,17.1212559 24.8210992,15.2111606 28.01,14 L55,14 C57.209139,14 59,15.790861 59,18 Z" fill="#1274AA" id="Shape"/><rect fill="#1274AA" height="5" id="Rectangle-path" rx="2.5" width="26" x="24" y="54"/><rect fill="#005793" height="5" id="Rectangle-path" width="8" x="33" y="49"/><rect fill="#00ABE8" height="25" id="Rectangle-path" rx="2" width="35" x="19" y="19"/><path d="M32,27.4 L32,36.6 C31.9969712,37.0923281 32.2555317,37.5492552 32.6791356,37.8001653 C33.1027394,38.0510754 33.6277008,38.0582462 34.058,37.819 L42.287,33.219 C42.7266272,32.9706936 42.9984951,32.5049041 42.9984951,32 C42.9984951,31.4950959 42.7266272,31.0293064 42.287,30.781 L34.058,26.181 C33.6277008,25.9417538 33.1027394,25.9489246 32.6791356,26.1998347 C32.2555317,26.4507448 31.9969712,26.9076719 32,27.4 Z" fill="#F0F4F8" id="Shape"/><path d="M49,22 L41,22 C40.4477153,22 40,22.4477153 40,23 C40,23.5522847 40.4477153,24 41,24 L49,24 L49,28 C49,28.5522847 49.4477153,29 50,29 C50.5522847,29 51,28.5522847 51,28 L51,24 C51,22.8954305 50.1045695,22 49,22 Z" fill="#FFFFFF" id="Shape"/><path d="M50,31 C49.4477153,31 49,31.4477153 49,32 L49,33 C49,33.5522847 49.4477153,34 50,34 C50.5522847,34 51,33.5522847 51,33 L51,32 C51,31.4477153 50.5522847,31 50,31 Z" fill="#FFFFFF" id="Shape"/><path d="M32.183,38.671 C32.9093588,39.1022127 33.8110327,39.1113706 34.546,38.695 L42.775,34.095 C43.5309229,33.6699783 43.9987619,32.8702156 43.9987619,32.003 C43.9987619,31.1357844 43.5309229,30.3360217 42.775,29.911 L34.546,25.311 C33.8063872,24.8995193 32.9041397,24.9106512 32.1749041,25.3402545 C31.4456686,25.7698577 30.998595,26.5536304 31,27.4 L31,36.6 C30.9933553,37.4528047 31.4450359,38.243532 32.183,38.671 Z M33,27.4 C32.9965277,27.2589165 33.0711237,27.1274121 33.194,27.058 C33.3091955,26.9879838 33.4538045,26.9879838 33.569,27.058 L41.799,31.658 C41.9223609,31.7295596 41.9982913,31.8613863 41.9982913,32.004 C41.9982913,32.1466137 41.9223609,32.2784404 41.799,32.35 L33.569,36.95 C33.4534346,37.0186825 33.3095654,37.0186825 33.194,36.95 C33.06851,36.8792476 32.9934967,36.7439143 33,36.6 L33,27.4 Z" fill="#000000" id="Shape"/><path d="M55,13 L28.416,13 L24.185,8.751 L25.326,3.025 L29.233,6.932 C28.6420531,7.52498227 28.5360917,8.44634974 28.977,9.158 L30.249,11.13 C30.5343144,11.5664179 31.0020978,11.8499564 31.521,11.901 C31.5834303,11.9078469 31.6461956,11.9111855 31.709,11.911 C32.1975658,11.9094355 32.6653823,11.7133124 33.009,11.366 L35.081,9.3 C35.4758561,8.91085921 35.6726621,8.36348101 35.616,7.812 C35.5649653,7.29282917 35.2814613,6.82473495 34.845,6.539 L32.877,5.265 C32.1650379,4.82155393 31.2415251,4.92632915 30.647,5.518 L25.422,0.293 C25.407,0.278 25.387,0.273 25.371,0.259 C25.355,0.245 25.343,0.226 25.326,0.213 C25.2640835,0.166941478 25.1969536,0.128341833 25.126,0.098 C25.105,0.088 25.087,0.077 25.066,0.069 C24.9651244,0.0312854989 24.8586622,0.0106690238 24.751,0.008 C24.7220349,0.00598882674 24.6929651,0.00598882674 24.664,0.008 C24.566435,0.0117743181 24.4700059,0.0303183578 24.378,0.063 C24.359,0.07 24.341,0.073 24.323,0.08 C24.305,0.087 24.3,0.089 24.285,0.1 L7.806,7.835 C7.59040334,7.93647163 7.41782417,8.11117704 7.319,8.328 L0.089,24.3 C-0.0500170166,24.6092566 -0.0228573504,24.9678899 0.161147702,25.2526836 C0.345152754,25.5374774 0.660934793,25.709632 1,25.71 C1.06719379,25.7105861 1.13425285,25.7038802 1.2,25.69 L8.756,24.185 L13,28.434 L13,45 C13.0033061,47.7600532 15.2399468,49.9966939 18,50 L32,50 L32,53 L26.5,53 C24.5670034,53.0000001 23.0000001,54.5670034 23.0000001,56.5 C23.0000001,58.4329966 24.5670034,59.9999999 26.5,60 L47.5,60 C49.4329966,60 51,58.4329966 51,56.5 C51,54.5670034 49.4329966,53 47.5,53 L42,53 L42,50 L55,50 C57.7600532,49.9966939 59.9966939,47.7600532 60,45 L60,18 C59.9966939,15.2399468 57.7600532,13.0033061 55,13 Z M26.118,13.7 C26.002,13.755 25.879,13.815 25.753,13.877 C25.672,13.917 25.595,13.954 25.51,13.997 C25.3026667,14.103 25.085,14.219 24.857,14.345 C24.779,14.387 24.698,14.436 24.618,14.481 C24.448,14.581 24.274,14.681 24.094,14.787 C23.994,14.846 23.894,14.906 23.794,14.969 C23.607,15.084 23.416,15.207 23.222,15.335 C23.13,15.396 23.041,15.453 22.948,15.516 C22.665,15.708 22.375,15.91 22.078,16.129 C22.019,16.173 21.958,16.221 21.899,16.266 C21.654,16.45 21.406,16.642 21.154,16.845 C21.054,16.929 20.947,17.015 20.843,17.102 C20.6176667,17.288 20.391,17.4826667 20.163,17.686 C20.063,17.775 19.963,17.863 19.863,17.956 C19.553,18.239 19.24,18.534 18.926,18.847 C18.897,18.875 18.87,18.902 18.843,18.93 C18.529,19.245 18.234,19.557 17.951,19.868 C17.859,19.968 17.772,20.068 17.683,20.168 C17.479,20.3986667 17.2826667,20.6276667 17.094,20.855 C17.009,20.955 16.924,21.055 16.842,21.161 C16.6333333,21.4203333 16.4333333,21.6756667 16.242,21.927 C16.203,21.98 16.159,22.034 16.121,22.086 C15.9,22.386 15.696,22.677 15.503,22.963 C15.442,23.052 15.388,23.138 15.33,23.226 C15.1966667,23.426 15.0706667,23.6226667 14.952,23.816 C14.893,23.91 14.836,24.002 14.781,24.094 C14.665,24.288 14.556,24.475 14.453,24.658 C14.415,24.724 14.374,24.794 14.338,24.858 C14.2093333,25.092 14.0913333,25.3143333 13.984,25.525 C13.943,25.605 13.909,25.676 13.871,25.753 C13.806,25.883 13.744,26.01 13.689,26.129 C13.671,26.165 13.649,26.209 13.633,26.244 L10.213,22.825 L10.223,22.798 C10.274,22.65 10.337,22.478 10.416,22.279 L10.416,22.272 C10.49,22.084 10.582,21.872 10.683,21.641 C10.705,21.592 10.727,21.541 10.751,21.49 C10.858,21.254 10.977,21.003 11.114,20.734 C11.13,20.702 11.149,20.667 11.166,20.634 C11.292,20.39 11.433,20.134 11.585,19.866 C11.623,19.8 11.66,19.734 11.7,19.666 C11.872,19.372 12.061,19.066 12.266,18.752 C12.309,18.687 12.356,18.619 12.4,18.552 C12.593,18.265 12.8,17.971 13.022,17.673 C13.064,17.616 13.102,17.561 13.145,17.504 C13.398,17.171 13.674,16.831 13.966,16.489 C14.034,16.409 14.105,16.329 14.175,16.249 C14.487,15.894 14.813,15.537 15.175,15.179 C15.537,14.821 15.893,14.493 16.251,14.179 C16.328,14.112 16.404,14.044 16.481,13.979 C16.826,13.685 17.169,13.406 17.506,13.151 C17.557,13.112 17.606,13.078 17.657,13.04 C17.9636667,12.812 18.2636667,12.5993333 18.557,12.402 L18.741,12.278 C19.059,12.07 19.3666667,11.8793333 19.664,11.706 L19.855,11.597 C20.125,11.443 20.386,11.297 20.633,11.172 L20.725,11.123 C20.994,10.987 21.243,10.868 21.478,10.761 L21.642,10.688 C21.863,10.588 22.074,10.499 22.258,10.427 L22.298,10.411 C22.477,10.341 22.634,10.283 22.77,10.235 L22.817,10.218 L26.227,13.643 L26.118,13.7 Z M21,20 L52,20 C52.5522847,20 53,20.4477153 53,21 L53,42 C53,42.5522847 52.5522847,43 52,43 L21,43 C20.4477153,43 20,42.5522847 20,42 L20,21 C20.001026,20.7459583 20.0998689,20.502074 20.276,20.319 L20.3,20.3 L20.321,20.28 C20.502944,20.1028821 20.7460954,20.0026135 21,20 Z M31.943,7.043 L33.501,8.043 L31.762,9.786 L30.762,8.229 L31.943,7.043 Z M8.989,9.488 L23.342,2.747 L22.235,8.3 C22.21,8.308 22.173,8.323 22.147,8.332 C22.017,8.377 21.872,8.432 21.711,8.491 C21.668,8.507 21.633,8.519 21.589,8.537 C21.389,8.616 21.157,8.711 20.915,8.817 L20.731,8.898 C20.468,9.017 20.191,9.146 19.891,9.298 L19.826,9.332 C19.543,9.476 19.243,9.639 18.934,9.814 L18.724,9.934 C18.394,10.126 18.053,10.334 17.699,10.566 C17.638,10.606 17.575,10.65 17.512,10.692 C17.185,10.91 16.852,11.144 16.512,11.397 C16.454,11.441 16.397,11.48 16.339,11.524 C15.967,11.806 15.589,12.112 15.208,12.438 C15.123,12.51 15.038,12.585 14.953,12.66 C14.558,13.006 14.161,13.368 13.763,13.766 C13.365,14.164 13.003,14.566 12.657,14.956 C12.582,15.041 12.508,15.125 12.436,15.209 C12.111,15.59 11.805,15.967 11.524,16.338 L11.391,16.52 C11.1423333,16.8533333 10.909,17.1826667 10.691,17.508 C10.647,17.574 10.6,17.641 10.558,17.708 C10.329,18.058 10.122,18.396 9.931,18.723 C9.887,18.8 9.846,18.872 9.804,18.948 C9.635,19.248 9.477,19.535 9.338,19.809 C9.322,19.84 9.304,19.872 9.289,19.902 C9.142,20.194 9.016,20.464 8.9,20.722 C8.868,20.794 8.837,20.863 8.807,20.932 C8.707,21.167 8.607,21.389 8.535,21.587 C8.514,21.64 8.5,21.681 8.481,21.73 C8.423,21.884 8.372,22.023 8.329,22.149 C8.32,22.176 8.304,22.214 8.296,22.239 L2.714,23.349 L8.989,9.488 Z M49,56.5 C49,57.3284271 48.3284271,58 47.5,58 L26.5,58 C25.6715729,58 25,57.3284271 25,56.5 C25,55.6715729 25.6715729,55 26.5,55 L47.5,55 C48.3284271,55 49,55.6715729 49,56.5 Z M40,53 L34,53 L34,50 L40,50 L40,53 Z M58,45 C58,46.6568542 56.6568542,48 55,48 L18,48 C16.3431458,48 15,46.6568542 15,45 L15,28.177 L15.01,28.148 L15.037,28.077 C15.05,28.04 15.066,27.999 15.083,27.955 C15.1,27.911 15.109,27.887 15.124,27.855 C15.139,27.823 15.166,27.755 15.189,27.696 C15.212,27.637 15.224,27.611 15.244,27.565 C15.27,27.502 15.301,27.433 15.331,27.365 L15.399,27.212 C15.434,27.136 15.473,27.052 15.513,26.969 L15.592,26.801 C15.647,26.688 15.708,26.567 15.771,26.443 C15.788,26.409 15.803,26.378 15.822,26.343 C15.904,26.183 15.995,26.015 16.091,25.843 C16.123,25.786 16.159,25.725 16.191,25.666 C16.26,25.544 16.33,25.42 16.406,25.292 C16.45,25.217 16.498,25.139 16.544,25.062 C16.616,24.945 16.688,24.826 16.765,24.704 C16.819,24.619 16.876,24.531 16.933,24.444 C17.011,24.324 17.09,24.203 17.174,24.079 C17.235,23.988 17.3,23.895 17.364,23.802 C17.4513333,23.6773333 17.541,23.5513333 17.633,23.424 C17.702,23.324 17.772,23.233 17.845,23.136 C17.894,23.069 17.945,23.001 17.999,22.936 L17.999,42 C17.999,43.6568542 19.3421458,45 20.999,45 L52,45 C53.6568542,45 55,43.6568542 55,42 L55,21 C55,19.3431458 53.6568542,18 52,18 L22.925,18 C22.995,17.946 23.067,17.89 23.137,17.838 C23.227,17.771 23.316,17.705 23.406,17.638 C23.5393333,17.54 23.6726667,17.445 23.806,17.353 L24.062,17.177 C24.195,17.088 24.324,17.002 24.453,16.919 L24.688,16.767 C24.818,16.685 24.944,16.608 25.069,16.533 C25.14,16.49 25.212,16.445 25.281,16.405 C25.417,16.324 25.547,16.25 25.681,16.177 L25.836,16.089 C26.011,15.989 26.181,15.902 26.336,15.819 L26.444,15.764 C26.565,15.703 26.684,15.643 26.795,15.589 L26.974,15.505 L27.2,15.4 L27.373,15.323 L27.55,15.246 L27.7,15.183 L27.842,15.125 L27.958,15.08 L28.07,15.037 L28.146,15.009 L28.174,14.999 L55,14.999 C55.7956495,14.999 56.5587112,15.3150705 57.1213203,15.8776797 C57.6839295,16.4402888 58,17.2033505 58,17.999 L58,45 Z" fill="#000000" id="Shape"/></g></g></svg>