<?xml version="1.0" ?><svg height="60px" version="1.1" viewBox="0 0 60 60" width="60px" xmlns="http://www.w3.org/2000/svg" xmlns:xlink="http://www.w3.org/1999/xlink"><title/><desc/><defs/><g fill="none" fill-rule="evenodd" id="Page-1" stroke="none" stroke-width="1"><g fill-rule="nonzero" id="039---Music-Teacher"><path d="M46,28.01 L46,49.67 C46.067308,54.550473 42.3181736,58.6372488 37.45,58.99 C34.9882027,59.1118037 32.5840805,58.2191879 30.7982755,56.520311 C29.0124706,54.8214341 28.0010943,52.4648085 28,50 C28.0017504,49.5987278 28.0284687,49.1979534 28.08,48.8 C28.6569721,44.6457558 32.014358,41.4332632 36.19,41.04 C37.4798536,40.9173388 38.7808758,41.0812472 40,41.52 L40,27.95 C39.9975741,27.6341343 39.847222,27.337671 39.5938166,27.1490902 C39.3404112,26.9605094 39.0132592,26.9016209 38.71,26.99 L19.71,32.78 C19.2888765,32.9103221 19.0012878,33.2991744 19,33.74 L19,49.8 C19.0009532,54.6314819 15.2689904,58.6427963 10.45,58.99 C5.57353137,59.207755 1.41240704,55.4985101 1.07060334,50.6291638 C0.728799646,45.7598174 4.33093101,41.5056309 9.19,41.04 C10.4798536,40.9173388 11.7808758,41.0812472 13,41.52 L13,22 C12.9997732,20.6395122 13.9150885,19.4491919 15.23,19.1 L32.21,14.07 C35.3018381,15.3114896 38.0962727,17.1926212 40.41,19.59 C42.8778767,21.9387939 44.7850657,24.813249 45.99,28 L46,28.01 Z" fill="#6AD202" id="Shape"/><path d="M59,24.71 L50.92,23.1 C49.8667153,19.8209036 48.0144603,16.8552336 45.53,14.47 C43.1447664,11.9855397 40.1790964,10.1332847 36.9,9.08 L35.76,3.38 L35.29,1.02 L35.29,1 L35.3,1.01 L36.99,1.8 L51.77,8.74 L59,24.71 Z" fill="#1274AA" id="Shape"/><path d="M50.92,23.1 L46.01,28.01 L46,28.01 L45.99,28 C44.7850657,24.813249 42.8778767,21.9387939 40.41,19.59 C38.0962727,17.1926212 35.3018381,15.3114896 32.21,14.07 C32.07,14.02 31.99,14 31.99,14 L32,14 L36.9,9.08 C40.1790964,10.1332847 43.1447664,11.9855397 45.53,14.47 C48.0144603,16.8552336 49.8667153,19.8209036 50.92,23.1 Z" fill="#005793" id="Shape"/><path d="M26.422,8.09 C26.2289626,8.22708207 26.1082117,8.44405693 26.0934552,8.68035587 C26.0786986,8.91665481 26.171517,9.14696678 26.346,9.307 L28.417,11.379 C28.5771767,11.553375 28.8075801,11.6460197 29.0438844,11.6310686 C29.2801886,11.6161176 29.4970782,11.4951726 29.634,11.302 L30.9,9.336 C31.0936447,9.01126224 31.0358697,8.59561426 30.761,8.336 L29.39,6.962 C29.1303857,6.68713034 28.7147378,6.62935527 28.39,6.823 L26.422,8.09 Z" fill="#FF8600" id="Shape"/><path d="M8.4,53.666 C8.11605274,53.5420271 7.84756528,53.3852975 7.6,53.199 C7.1581722,52.8676292 6.53137085,52.9571722 6.2,53.399 C5.86862915,53.8408278 5.9581722,54.4676292 6.4,54.799 C6.77174016,55.0777187 7.17440385,55.3126059 7.6,55.499 C7.72591038,55.5549174 7.86223248,55.5835451 8,55.583 C8.47307728,55.5824433 8.88103942,55.2504564 8.97771864,54.787363 C9.07439786,54.3242695 8.83333942,53.8567877 8.4,53.667 L8.4,53.666 Z" fill="#FFFFFF" id="Shape"/><path d="M10,44 C6.68766243,44.0033074 4.00330738,46.6876624 4,50 C4.00000001,50.5522847 4.44771526,51 5,51 C5.55228474,51 5.99999999,50.5522847 6,50 C6,47.790861 7.790861,46 10,46 C10.5522847,46 11,45.5522847 11,45 C11,44.4477153 10.5522847,44 10,44 Z" fill="#FFFFFF" id="Shape"/><path d="M35.4,53.666 C35.1160527,53.5420271 34.8475653,53.3852975 34.6,53.199 C34.3141875,52.9846406 33.9357266,52.9390436 33.6071797,53.0793848 C33.2786328,53.2197259 33.0499141,53.5246842 33.0071797,53.8793848 C32.9644453,54.2340853 33.1141875,54.5846406 33.4,54.799 C33.7717402,55.0777187 34.1744039,55.3126059 34.6,55.499 C34.7259104,55.5549174 34.8622325,55.5835451 35,55.583 C35.4730773,55.5824433 35.8810394,55.2504564 35.9777186,54.787363 C36.0743979,54.3242695 35.8333394,53.8567877 35.4,53.667 L35.4,53.666 Z" fill="#FFFFFF" id="Shape"/><path d="M37,44 C33.6876624,44.0033074 31.0033074,46.6876624 31,50 C31,50.5522847 31.4477153,51 32,51 C32.5522847,51 33,50.5522847 33,50 C33,47.790861 34.790861,46 37,46 C37.5522847,46 38,45.5522847 38,45 C38,44.4477153 37.5522847,44 37,44 Z" fill="#FFFFFF" id="Shape"/><path d="M24.716,19.418 L17.432,21.576 C16.5851187,21.8312845 16.0041033,22.6094881 16,23.494 L16,26 C16,26.5522847 16.4477153,27 17,27 C17.5522847,27 18,26.5522847 18,26 L18,23.494 L25.284,21.336 C25.8136411,21.1791511 26.1158488,20.6226411 25.959,20.093 C25.8021511,19.563359 25.2456411,19.2611512 24.716,19.418 Z" fill="#FFFFFF" id="Shape"/><path d="M52.682,8.328 C52.5831758,8.11117704 52.4105967,7.93647163 52.195,7.835 L35.715,0.1 C35.702,0.094 35.688,0.093 35.675,0.087 C35.662,0.081 35.638,0.077 35.62,0.07 C35.528523,0.0359018297 35.4324602,0.0156780898 35.335,0.01 C35.3057003,0.00801207907 35.2762997,0.00801207907 35.247,0.01 C35.1383628,0.0126705298 35.0309142,0.0332817238 34.929,0.071 C34.91,0.078 34.894,0.089 34.876,0.097 C34.8048837,0.128251032 34.7377439,0.167863524 34.676,0.215 C34.659,0.228 34.647,0.247 34.631,0.261 C34.615,0.275 34.595,0.28 34.58,0.295 L29.353,5.518 C28.7610353,4.9249451 27.8381377,4.81880773 27.127,5.262 L25.16,6.53 C24.7235387,6.81573495 24.4400347,7.28382917 24.389,7.803 C24.3282209,8.35670348 24.5233626,8.90788685 24.919,9.3 L26.991,11.372 C27.3348453,11.718852 27.8026007,11.9145897 28.291,11.916 C28.3538044,11.9161855 28.4165697,11.9128469 28.479,11.906 C28.9999694,11.8541172 29.4692779,11.568707 29.755,11.13 L31.021,9.167 C31.463808,8.45472807 31.358645,7.53144634 30.767,6.937 L34.674,3.03 L35.815,8.757 L31.367,13.224 C31.3430836,13.2485972 31.3207078,13.2746467 31.3,13.302 L14.974,18.133 C13.2214201,18.5998987 12.0013683,20.1862941 12,22 L12,40.2 C8.20675825,39.431368 4.31057649,40.9206186 1.99712972,44.0234306 C-0.316317054,47.1262425 -0.631580957,51.2854141 1.18773629,54.7014883 C3.00705353,58.1175625 6.63423962,60.177082 10.5,59.989 C15.8526413,59.6178434 20.0039155,55.1654926 20,49.8 L20,33.737 L39,27.95 L39,40.2 C36.2851003,39.6525663 33.4646942,40.2530067 31.2081999,41.8588078 C28.9517056,43.4646089 27.4603125,45.9325971 27.088,48.677 C27.0307145,49.1156949 27.0013221,49.5575826 27,50 C27.0038608,55.5212475 31.4787525,59.9961392 37,60 C37.167,60 37.334,60 37.5,59.988 C42.9117963,59.6329826 47.0921808,55.0926451 47,49.67 L47,28.434 L51.249,24.185 L58.805,25.69 C58.8707472,25.7038802 58.9378062,25.7105861 59.005,25.71 C59.3446146,25.7099376 59.6609853,25.5375145 59.8451041,25.2521404 C60.0292229,24.9667664 60.0559212,24.6074513 59.916,24.298 L52.682,8.328 Z M28.238,9.786 L26.5,8.047 L28.058,7.047 L29.243,8.233 L28.238,9.786 Z M37.18,10.217 L37.24,10.238 C37.368,10.283 37.514,10.338 37.679,10.402 L37.744,10.427 C37.925,10.499 38.133,10.587 38.35,10.684 L38.524,10.762 C38.756,10.867 39.003,10.984 39.267,11.119 L39.378,11.177 C39.619,11.302 39.873,11.441 40.135,11.59 C40.202,11.629 40.269,11.666 40.335,11.707 C40.629,11.879 40.935,12.067 41.247,12.272 L41.447,12.408 C41.733,12.5993333 42.025,12.8056667 42.323,13.027 C42.38,13.07 42.436,13.109 42.494,13.152 C42.827,13.405 43.166,13.681 43.508,13.972 C43.588,14.04 43.668,14.111 43.748,14.181 C44.103,14.493 44.461,14.819 44.818,15.181 C45.175,15.543 45.502,15.897 45.818,16.252 C45.888,16.332 45.959,16.412 46.027,16.492 C46.319,16.834 46.594,17.173 46.847,17.506 C46.892,17.565 46.932,17.623 46.975,17.682 C47.195,17.978 47.4003333,18.2683333 47.591,18.553 C47.637,18.621 47.685,18.69 47.73,18.758 C47.934,19.07 48.1213333,19.3723333 48.292,19.665 C48.334,19.737 48.373,19.807 48.414,19.878 C48.562,20.137 48.699,20.388 48.822,20.627 C48.842,20.664 48.864,20.704 48.882,20.74 C49.017,21.005 49.134,21.252 49.24,21.485 L49.315,21.651 C49.415,21.874 49.504,22.086 49.577,22.27 L49.586,22.294 C49.6613333,22.4846667 49.7236667,22.6513333 49.773,22.794 L49.784,22.824 L46.364,26.244 C45.0592057,23.5036452 43.2836067,21.0135418 41.118,18.887 C38.9939869,16.7227857 36.5065785,14.948193 33.769,13.644 L37.18,10.217 Z M37.4,57.991 C35.2114136,58.1005664 33.0736884,57.3075782 31.4860159,55.7972102 C29.8983434,54.2868423 28.9997244,52.1913273 29,50 C29.0013562,49.6415054 29.0254043,49.2834561 29.072,48.928 C29.5735307,45.2312802 32.5635697,42.3719283 36.279,42.036 C37.4227513,41.9256757 38.5767393,42.0701377 39.658,42.459 C39.9644711,42.570539 40.3060792,42.5256207 40.5732987,42.3386468 C40.8405181,42.1516728 40.9997717,41.8461371 41,41.52 L41,27.95 C40.9981496,27.3169228 40.6977063,26.7218301 40.1894057,26.3444435 C39.6811051,25.9670568 39.0245411,25.8516216 38.418,26.033 L19.418,31.825 C18.575156,32.0813619 17.9993156,32.8590307 18,33.74 L18,49.785 C18.0146939,54.0917127 14.6951951,57.6758979 10.4,57.991 C8.0285819,58.11771 5.72494466,57.1762969 4.121,55.425 C2.05709566,53.1857666 1.44351169,49.9689483 2.53826168,47.1272252 C3.63301167,44.2855021 6.24620988,42.3117746 9.279,42.036 C10.4227513,41.9256757 11.5767393,42.0701377 12.658,42.459 C12.9644711,42.570539 13.3060792,42.5256207 13.5732987,42.3386468 C13.8405181,42.1516728 13.9997717,41.8461371 14,41.52 L14,22 C14.0035904,21.0833268 14.6266376,20.2850862 15.515,20.059 L32.16,15.128 C34.9906103,16.3364473 37.5533985,18.0943705 39.7,20.3 C42.0034165,22.5212771 43.8097882,25.2056136 45,28.176 L45,49.67 C45.0910891,54.0266052 41.7470057,57.6879365 37.4,57.991 Z M51.7,22.235 C51.692,22.211 51.677,22.173 51.668,22.147 C51.623,22.017 51.568,21.872 51.509,21.71 C51.493,21.667 51.481,21.633 51.463,21.589 C51.384,21.389 51.289,21.157 51.183,20.915 C51.157,20.854 51.13,20.794 51.102,20.731 C50.983,20.468 50.854,20.191 50.702,19.891 L50.668,19.826 C50.524,19.543 50.361,19.243 50.186,18.934 C50.146,18.864 50.108,18.796 50.066,18.724 C49.874,18.394 49.666,18.052 49.434,17.699 C49.394,17.638 49.35,17.575 49.309,17.513 C49.091,17.1856667 48.8553333,16.8523333 48.602,16.513 C48.559,16.455 48.52,16.398 48.476,16.34 C48.194,15.968 47.888,15.59 47.562,15.209 C47.49,15.124 47.415,15.039 47.34,14.954 C46.994,14.559 46.632,14.162 46.234,13.764 C45.836,13.366 45.439,13.004 45.044,12.658 C44.959,12.583 44.875,12.509 44.791,12.437 C44.41,12.112 44.032,11.806 43.661,11.525 C43.6,11.479 43.542,11.438 43.481,11.393 C43.1443333,11.143 42.8143333,10.9096667 42.491,10.693 C42.425,10.649 42.359,10.603 42.291,10.561 C41.941,10.332 41.603,10.125 41.276,9.934 L41.051,9.807 C40.751,9.638 40.464,9.48 40.19,9.341 L40.1,9.292 C39.808,9.145 39.538,9.019 39.28,8.903 L39.07,8.81 C38.835,8.71 38.613,8.61 38.415,8.538 L38.274,8.485 C38.118,8.426 37.974,8.375 37.852,8.331 L37.765,8.3 L36.658,2.747 L51.012,9.488 L57.286,23.349 L51.7,22.235 Z" fill="#000000" id="Shape"/></g></g></svg>