<?xml version="1.0" ?><svg height="60px" version="1.1" viewBox="0 0 60 60" width="60px" xmlns="http://www.w3.org/2000/svg" xmlns:xlink="http://www.w3.org/1999/xlink"><title/><desc/><defs/><g fill="none" fill-rule="evenodd" id="Page-1" stroke="none" stroke-width="1"><g fill-rule="nonzero" id="016---Science-Teaching-Research"><path d="M39,59 L9.01,59 C6.14003886,58.9988471 3.49059117,57.4604433 2.06691412,54.9684919 C0.64323706,52.4765404 0.663494374,49.4129071 2.12,46.94 L17.73,20.47 C17.9117842,20.160698 18.0083939,19.8087626 18.01,19.45 L18.01,6.69 C18.0112121,6.2429462 17.8594812,5.80892524 17.58,5.46 L14.22,2.62 C13.981727,2.31848017 13.9373233,1.90709032 14.1057685,1.56167105 C14.2742137,1.21625178 14.6257033,0.997921019 15.01,1 L33,1 C33.3842967,0.997921019 33.7357863,1.21625178 33.9042315,1.56167105 C34.0726767,1.90709032 34.028273,2.31848017 33.79,2.62 L30.43,5.46 C30.1576457,5.81217248 30.009919,6.24480083 30.01,6.69 L30.01,16.2 C27.6796479,18.5660822 26.271638,21.6871116 26.04,25 L20.85,25 C20.1432769,24.9978952 19.4885121,25.3709589 19.13,25.98 L5.57,48.97 C4.84129306,50.2072237 4.83163606,51.7401105 5.54469707,52.9864171 C6.25775809,54.2327237 7.58412579,55.0012183 9.02,55 L39,55 C40.4358742,55.0012183 41.7622419,54.2327237 42.4753029,52.9864171 C43.1883639,51.7401105 43.1787069,50.2072237 42.45,48.97 L36.96,39.67 C37.9580895,39.8916109 38.9776064,40.0022822 40,40 C40.578377,39.9988501 41.1561352,39.962114 41.73,39.89 L45.89,46.94 C47.3465056,49.4129071 47.3667629,52.4765404 45.9430859,54.9684919 C44.5194088,57.4604433 41.8699611,58.9988471 39,59 Z" fill="#0068EA" id="Shape"/><path d="M42.48,52.98 C41.7781578,54.2405102 40.4426438,55.0157223 39,55 L9.02,55 C7.58412579,55.0012183 6.25775809,54.2327237 5.54469707,52.9864171 C4.83163606,51.7401105 4.84129306,50.2072237 5.57,48.97 L19.13,25.98 C19.4885121,25.3709589 20.1432769,24.9978952 20.85,25 L26.04,25 C26.01,25.33 26,25.66 26,26 C26.0037366,32.5601749 30.5575759,38.2400091 36.96,39.67 L42.45,48.97 C43.1897084,50.2014081 43.2012016,51.7376624 42.48,52.98 Z" fill="#6AD202" id="Shape"/><path d="M54,26 C54.0045951,29.3663325 52.7896541,32.620385 50.58,35.16 C50.1423075,35.6676806 49.6676806,36.1423075 49.16,36.58 C47.0679198,38.3981544 44.4808785,39.5506587 41.73,39.89 C41.1561352,39.962114 40.578377,39.9988501 40,40 C36.2853414,40.0053181 32.7212959,38.5320301 30.0946329,35.9053671 C27.4679699,33.2787041 25.9946819,29.7146586 26,26 C26,25.66 26.01,25.33 26.04,25 C26.6069179,17.5058938 32.9897909,11.7963835 40.5005076,12.0650071 C48.0112243,12.3336308 53.9699049,18.4845414 54,26 Z" fill="#00ABE8" id="Shape"/><path d="M16.007,50 L10.768,50 L13.417,45.508 C13.6975606,45.0322067 13.5392933,44.4190607 13.0635,44.1385 C12.5877067,43.8579394 11.9745607,44.0162067 11.694,44.492 L9.045,48.984 C8.68040136,49.6022078 8.67501033,50.3683806 9.0308735,50.9916578 C9.38673668,51.614935 10.0492863,51.9997438 10.767,52 L16.007,52 C16.5592847,52 17.007,51.5522847 17.007,51 C17.007,50.4477153 16.5592847,50 16.007,50 Z" fill="#FFFFFF" id="Shape"/><path d="M21.007,50 L20.007,50 C19.4547153,50 19.007,50.4477153 19.007,51 C19.007,51.5522847 19.4547153,52 20.007,52 L21.007,52 C21.5592847,52 22.007,51.5522847 22.007,51 C22.007,50.4477153 21.5592847,50 21.007,50 Z" fill="#FFFFFF" id="Shape"/><path d="M14.643,39.492 L14.053,40.492 C13.8607478,40.8001207 13.8506625,41.1882535 14.0266534,41.5059427 C14.2026444,41.823632 14.5370423,42.0209306 14.9002214,42.021358 C15.2634006,42.0217853 15.5982619,41.8252742 15.775,41.508 L16.365,40.508 C16.5572522,40.1998793 16.5673375,39.8117465 16.3913466,39.4940573 C16.2153556,39.176368 15.8809577,38.9790694 15.5177786,38.978642 C15.1545994,38.9782147 14.8197381,39.1747258 14.643,39.492 Z" fill="#FFFFFF" id="Shape"/><path d="M22.007,6 C21.4547153,6 21.007,6.44771525 21.007,7 L21.007,14 C21.007,14.5522847 21.4547153,15 22.007,15 C22.5592847,15 23.007,14.5522847 23.007,14 L23.007,7 C23.007,6.44771525 22.5592847,6 22.007,6 Z" fill="#FFFFFF" id="Shape"/><path d="M22.007,17 C21.4547153,17 21.007,17.4477153 21.007,18 L21.007,19 C21.007,19.5522847 21.4547153,20 22.007,20 C22.5592847,20 23.007,19.5522847 23.007,19 L23.007,18 C23.007,17.4477153 22.5592847,17 22.007,17 Z" fill="#FFFFFF" id="Shape"/><path d="M41,16 C41,15.4477153 40.5522847,15 40,15 C39.628,15 39.262,15.019 38.9,15.055 C38.3477153,15.0826143 37.9223858,15.5527153 37.95,16.105 C37.9776143,16.6572847 38.4477153,17.0826142 39,17.055 C39.033,17.055 39.067,17.055 39.1,17.055 C39.3988759,17.0214479 39.6992626,17.0030909 40,17 C40.5522847,17 41,16.5522847 41,16 Z" fill="#FFFFFF" id="Shape"/><path d="M35.865,16.842 C35.5881648,16.3644573 34.9767568,16.2015346 34.499,16.478 C31.1034555,18.4486023 29.0097289,22.0740732 29,26 C29,26.5522847 29.4477153,27 30,27 C30.5522847,27 31,26.5522847 31,26 C31.0089937,22.7876097 32.7220856,19.8212959 35.5,18.208 C35.9779053,17.9315071 36.1412972,17.3200185 35.865,16.842 Z" fill="#FFFFFF" id="Shape"/><path d="M51.286,35.872 C56.3574631,30.0989143 56.2397211,21.4251427 51.013422,15.791844 C45.787123,10.1585452 37.1464972,9.39188827 31.01,14.017 L31.01,6.69 C31.0093407,6.49634693 31.0649241,6.3066684 31.17,6.144 L34.436,3.384 C34.4873934,3.34009704 34.5342911,3.29118947 34.576,3.238 C35.0508558,2.63550542 35.1392515,1.8144883 34.8035282,1.12472191 C34.467805,0.434955514 33.7671269,-0.00200351423 33,1.55431223e-15 L15.01,1.55431223e-15 C14.2445671,-0.00181048297 13.5452352,0.433408659 13.2088079,1.12094594 C12.8723807,1.80848323 12.9578726,2.62773408 13.429,3.231 C13.4720787,3.28673477 13.5206568,3.337993 13.574,3.384 L16.848,6.15 C16.9546601,6.30980885 17.0110783,6.49786965 17.01,6.69 L17.01,19.45 C17.0086549,19.6300705 16.9600325,19.8066286 16.869,19.962 L1.259,46.433 C-0.379287568,49.2149529 -0.401960998,52.6613014 1.19958156,55.4645691 C2.80112412,58.2678367 5.78149476,59.9985078 9.01,60 L39,60 C42.2285052,59.9985078 45.2088759,58.2678367 46.8104184,55.4645691 C48.411961,52.6613014 48.3892876,49.2149529 46.751,46.433 L43.324,40.623 C45.74937,40.0720396 47.9981225,38.9223946 49.865,37.279 L58.293,45.707 C58.6853789,46.0859722 59.3090848,46.0805524 59.6948186,45.6948186 C60.0805524,45.3090848 60.0859722,44.6853789 59.707,44.293 L51.286,35.872 Z M53,26 C52.9999152,32.5578478 48.1154876,38.0888447 41.608,38.9 C41.208,38.95 40.8173333,38.9833333 40.436,39 C39.3411876,39.0442641 38.2453333,38.9433877 37.177,38.7 C31.242792,37.3504551 27.0239261,32.0856818 27,26 C27,25.691 27.009,25.392 27.037,25.07 C27.5625675,18.1101727 33.4902865,12.8073807 40.4654562,13.0572327 C47.4406259,13.3070847 52.9737454,19.0204063 53,26 Z M40.752,53.454 C40.672,53.511 40.583,53.563 40.493,53.615 C40.462,53.633 40.437,53.653 40.405,53.669 C40.3078264,53.7185843 40.2076283,53.7620034 40.105,53.799 C40.07,53.813 40.04,53.83 40.005,53.843 C39.8855456,53.8801447 39.7640004,53.9101971 39.641,53.933 C39.606,53.94 39.575,53.952 39.541,53.958 C39.3621148,53.9867383 39.1811773,54.0007852 39,54 L9.02,54 C7.94316132,54.0009875 6.94839717,53.4247558 6.41351224,52.490154 C5.87862732,51.5555521 5.88568316,50.4059657 6.432,49.478 L19.991,26.489 C20.1695089,26.1843432 20.4969036,25.9979684 20.85,26 L25,26 C25,26.432 25.019,26.8603333 25.057,27.285 C25.069,27.427 25.095,27.567 25.111,27.708 C25.144,27.988 25.174,28.269 25.222,28.544 C25.251,28.713 25.295,28.878 25.33,29.044 C25.382,29.288 25.43,29.534 25.492,29.774 C25.539,29.95 25.599,30.122 25.652,30.296 C25.72,30.521 25.783,30.747 25.862,30.968 C25.926,31.148 26.003,31.322 26.073,31.498 C26.157,31.707 26.235,31.918 26.328,32.122 C26.408,32.3 26.501,32.472 26.588,32.646 C26.688,32.846 26.779,33.039 26.888,33.23 C26.988,33.404 27.088,33.571 27.197,33.742 C27.306,33.913 27.414,34.108 27.532,34.285 C27.65,34.462 27.767,34.615 27.885,34.778 C28.003,34.941 28.129,35.121 28.259,35.285 C28.389,35.449 28.52,35.596 28.652,35.751 C28.784,35.906 28.922,36.07 29.064,36.223 C29.206,36.376 29.351,36.514 29.496,36.658 C29.641,36.802 29.789,36.952 29.942,37.092 C30.095,37.232 30.254,37.362 30.412,37.492 C30.57,37.622 30.727,37.761 30.892,37.892 C31.057,38.023 31.224,38.135 31.392,38.254 C31.56,38.373 31.731,38.497 31.906,38.611 C32.081,38.725 32.257,38.826 32.434,38.93 C32.611,39.034 32.796,39.146 32.983,39.246 C33.17,39.346 33.347,39.43 33.531,39.519 C33.715,39.608 33.919,39.707 34.118,39.792 C34.317,39.877 34.493,39.943 34.682,40.015 C34.889,40.095 35.095,40.173 35.306,40.243 C35.496,40.306 35.688,40.36 35.881,40.416 C36.028,40.458 36.17,40.509 36.319,40.547 L41.593,49.479 C41.6833175,49.6321969 41.7612328,49.7923747 41.826,49.958 C41.848,50.014 41.858,50.067 41.875,50.122 C41.907,50.222 41.943,50.322 41.964,50.422 C42.101732,51.1191587 41.9838797,51.8426014 41.632,52.46 L41.617,52.488 C41.4071761,52.8547623 41.1259714,53.1757504 40.79,53.432 C40.773,53.435 40.764,53.445 40.752,53.454 Z M45.082,54.468 C43.847899,56.6638349 41.5188146,58.0164041 39,58 L9.01,58 C6.49889567,57.9989753 4.18072268,56.6529759 2.9349772,54.472663 C1.68923172,52.2923501 1.7067936,49.6118032 2.981,47.448 L18.6,20.972 C18.8691527,20.5097798 19.0119336,19.9848705 19.014,19.45 L19.014,6.69 C19.0139045,6.01555245 18.7847187,5.36113877 18.364,4.834 C18.3234796,4.78414792 18.278639,4.73796881 18.23,4.696 L15.035,2 L32.973,2 L29.784,4.7 C29.7298367,4.74582768 29.6808759,4.79747125 29.638,4.854 C29.231633,5.38137673 29.0108617,6.02822254 29.01,6.694 L29.01,15.8 C28.882,15.937 28.766,16.084 28.644,16.225 C28.544,16.344 28.436,16.46 28.337,16.582 C28.148,16.816 27.971,17.058 27.797,17.302 C27.73,17.396 27.657,17.486 27.592,17.582 C27.3633333,17.9186667 27.149,18.2636667 26.949,18.617 C26.878,18.742 26.818,18.871 26.749,18.998 C26.624,19.233 26.5,19.469 26.388,19.711 C26.311,19.878 26.243,20.048 26.172,20.218 C26.085,20.425 25.999,20.633 25.922,20.844 C25.854,21.03 25.793,21.217 25.732,21.405 C25.671,21.593 25.605,21.805 25.548,22.016 C25.491,22.227 25.448,22.404 25.4,22.601 C25.352,22.798 25.309,23.02 25.269,23.231 C25.233,23.423 25.197,23.615 25.169,23.809 C25.159,23.873 25.144,23.936 25.136,24 L20.85,24 C19.7880519,23.9937137 18.803723,24.555479 18.269,25.473 L4.709,48.462 C3.79799401,50.0083275 3.7856416,51.9243005 4.67663411,53.4822457 C5.56762663,55.0401908 7.22526894,56.0010899 9.02,56 L39,56 C39.3079624,56.0004355 39.6154038,55.974676 39.919,55.923 C41.3679138,55.6572351 42.6240604,54.7619239 43.348,53.479 L43.348,53.473 C44.2487908,51.9199173 44.2338503,49.9998768 43.309,48.461 L38.88,40.961 C39.236,40.987 39.594,40.998 39.955,40.999 L40,41 L40.012,41 C40.045,41 40.08,41 40.112,41 C40.43,41 40.751,40.983 41.077,40.959 C41.116,40.959 41.155,40.959 41.194,40.959 L45.028,47.459 C46.316679,49.6123969 46.3373469,52.2950029 45.082,54.468 Z" fill="#000000" id="Shape"/></g></g></svg>