<?xml version="1.0" ?><svg height="60px" version="1.1" viewBox="0 0 60 60" width="60px" xmlns="http://www.w3.org/2000/svg" xmlns:xlink="http://www.w3.org/1999/xlink"><title/><desc/><defs/><g fill="none" fill-rule="evenodd" id="Page-1" stroke="none" stroke-width="1"><g fill-rule="nonzero" id="015---TV"><g id="Colour" transform="translate(1.000000, 1.000000)"><rect fill="#00E5E8" height="42" id="Rectangle-path" rx="1" width="58" x="0" y="0"/><polygon fill="#F0F6F8" id="Shape" points="23 13 23 29 35 21"/><rect fill="#97AEBB" height="12" id="Rectangle-path" width="6" x="26" y="42"/><path d="M11,54 L47,54 C48.1045695,54 49,54.8954305 49,56 L49,58 L9,58 L9,56 C9,54.8954305 9.8954305,54 11,54 Z" fill="#BDCFD7" id="Shape"/></g><g fill="#FFFFFF" id="Lines" transform="translate(4.000000, 4.000000)"><path d="M1,32 C0.44771525,32 0,32.4477153 0,33 L0,35 C0,35.5522847 0.44771525,36 1,36 C1.55228475,36 2,35.5522847 2,35 L2,33 C2,32.4477153 1.55228475,32 1,32 Z" id="Shape"/><path d="M1,6 C0.44771525,6 0,6.44771525 0,7 L0,29 C0,29.5522847 0.44771525,30 1,30 C1.55228475,30 2,29.5522847 2,29 L2,7 C2,6.44771525 1.55228475,6 1,6 Z" id="Shape"/><path d="M1,0 C0.44771525,0 0,0.44771525 0,1 L0,3 C0,3.55228475 0.44771525,4 1,4 C1.55228475,4 2,3.55228475 2,3 L2,1 C2,0.44771525 1.55228475,0 1,0 Z" id="Shape"/></g><g fill="#000000" id="Outer_Lines"><path d="M58,0 L2,0 C0.8954305,-6.76353751e-17 1.3527075e-16,0.8954305 0,2 L0,42 C1.3527075e-16,43.1045695 0.8954305,44 2,44 L26,44 L26,54 L12,54 C10.3431458,54 9,55.3431458 9,57 L9,59 C9,59.5522847 9.44771525,60 10,60 L50,60 C50.5522847,60 51,59.5522847 51,59 L51,57 C51,55.3431458 49.6568542,54 48,54 L34,54 L34,44 L58,44 C59.1045695,44 60,43.1045695 60,42 L60,2 C60,0.8954305 59.1045695,6.76353751e-17 58,0 Z M49,57 L49,58 L11,58 L11,57 C11,56.4477153 11.4477153,56 12,56 L48,56 C48.5522847,56 49,56.4477153 49,57 Z M32,54 L28,54 L28,44 L32,44 L32,54 Z M33,42 L2,42 L2,2 L58,2 L58,42 L33,42 Z" id="Shape"/><path d="M36.555,21.168 L24.555,13.168 C24.2481413,12.9632678 23.8534915,12.9440981 23.528235,13.118126 C23.2029784,13.292154 22.9999448,13.6311131 23,14 L23,30 C22.9999448,30.3688869 23.2029784,30.707846 23.528235,30.881874 C23.8534915,31.0559019 24.2481413,31.0367322 24.555,30.832 L36.555,22.832 C36.8331551,22.6465268 37.0002244,22.3343211 37.0002244,22 C37.0002244,21.6656789 36.8331551,21.3534732 36.555,21.168 Z M25,28.132 L25,15.868 L34.2,22 L25,28.132 Z" id="Shape"/></g></g></g></svg>